<svg xmlns="http://www.w3.org/2000/svg" width="225.52" height="174.101" viewBox="0 0 225.52 174.101">
  <g id="Group_147" data-name="Group 147" transform="translate(-985 -190)">
    <g id="Group_102" data-name="Group 102" transform="translate(985 190)">
      <path id="Path_302" data-name="Path 302" d="M0,174.1H225.52L114.43,0Z" transform="translate(0 0.001)" fill="#d4e5ee"/>
      <g id="Group_81" data-name="Group 81" transform="translate(2.993)">
        <g id="Group_75" data-name="Group 75" transform="translate(0 21.832)">
          <g id="Group_65" data-name="Group 65" transform="translate(128.481 62.663)">
            <g id="Group_64" data-name="Group 64">
              <path id="Path_303" data-name="Path 303" d="M146.11,85.6h0a15.812,15.812,0,0,1,19.63,7.03l23.46,55.38a15.87,15.87,0,0,1-4.57,20.58h0a15.882,15.882,0,0,1-23.19-5.16l-28.73-52.22C128.1,102.85,137.23,89.11,146.11,85.6Z" transform="translate(-131.474 -84.494)" fill="#fd404e"/>
            </g>
            <path id="Path_304" data-name="Path 304" d="M189.21,148.01l15.48,26.09h-37.2l-5.23-9.37Z" transform="translate(-131.474 -84.494)" fill="#fd404e"/>
          </g>
          <g id="Group_67" data-name="Group 67" transform="translate(65.97 59.134)">
            <g id="Group_66" data-name="Group 66">
              <path id="Path_305" data-name="Path 305" d="M110.56,83.04,82.79,81a12.88,12.88,0,0,0-13.8,13.67L69,111.65l2.63,62.15h67.96l19.38-64.7-4.22-24.64-17.57-.86Z" transform="translate(-68.963 -80.965)" fill="#fd404e"/>
            </g>
            <path id="Path_306" data-name="Path 306" d="M149.31,141.34s9.66-13.29.63-35.22" transform="translate(-68.963 -80.965)" fill="none" stroke="#b7152c" stroke-linecap="round" stroke-linejoin="round" stroke-miterlimit="10" stroke-width="1.071"/>
          </g>
          <g id="Group_74" data-name="Group 74">
            <g id="Group_68" data-name="Group 68" transform="translate(9.093 60.667)">
              <path id="Path_307" data-name="Path 307" d="M97.13,99.69h0c3.66,7.04,7,7.96.5,12.52L37.07,158.73a15.881,15.881,0,0,1-20.94-2.42h0a15.88,15.88,0,0,1,2.74-23.6l54.94-48.9C81.66,78.34,92.73,91.21,97.13,99.69Z" transform="translate(-12.087 -82.498)" fill="#fd404e"/>
              <line id="Line_1" data-name="Line 1" y1="12.97" x2="16.55" transform="translate(58.553 37.482)" fill="none" stroke="#b7152c" stroke-linecap="round" stroke-linejoin="round" stroke-miterlimit="10" stroke-width="1.071"/>
            </g>
            <g id="Group_73" data-name="Group 73">
              <g id="Group_70" data-name="Group 70">
                <g id="Group_69" data-name="Group 69">
                  <path id="Path_308" data-name="Path 308" d="M32.96,74.01S43.2,75.26,45.18,62.42l2.53-16.61a2.951,2.951,0,0,0-2.84-3.4h0a2.96,2.96,0,0,0-2.8,1.77l-3.88,8.79L33.71,24.54a3.209,3.209,0,0,0-4.16-2.55h0a3.211,3.211,0,0,0-2.19,3.43l2.12,17.8-1.58.83-6.42-16.9a3.084,3.084,0,0,0-4.52-1.52h0a3.084,3.084,0,0,0-1.25,3.71L21.98,46l-1.61,1.08L13.15,33.75a2.517,2.517,0,0,0-3.5-.97h0a2.516,2.516,0,0,0-.96,3.32l7.28,14.25-1.3.94-7.69-10a2.227,2.227,0,0,0-3.46-.08h0a2.223,2.223,0,0,0-.12,2.72l8.58,12.14S15.5,73.96,24.43,74.62Z" transform="translate(-2.993 -21.831)" fill="#fe9575"/>
                  <path id="Path_309" data-name="Path 309" d="M38.19,52.97s-7.34-2.67-10.08,9.69" transform="translate(-2.993 -21.831)" fill="none" stroke="#e56b53" stroke-linecap="round" stroke-linejoin="round" stroke-miterlimit="10" stroke-width="1.085"/>
                </g>
                <path id="Path_310" data-name="Path 310" d="M22.1,72.13,18.92,99.08l19.34,1.69,1.43-32.55Z" transform="translate(-2.993 -21.831)" fill="#fe9575"/>
              </g>
              <g id="Group_72" data-name="Group 72" transform="translate(9.107 57.749)">
                <g id="Group_71" data-name="Group 71">
                  <path id="Path_311" data-name="Path 311" d="M16.54,79.58,12.1,145.39l31.48-14.66-.6-50.32Z" transform="translate(-12.1 -79.58)" fill="#fd404e"/>
                </g>
                <line id="Line_2" data-name="Line 2" x2="0.24" y2="15.53" transform="translate(31.24 31.36)" fill="none" stroke="#b7152c" stroke-linecap="round" stroke-linejoin="round" stroke-miterlimit="10" stroke-width="1.071"/>
              </g>
            </g>
          </g>
        </g>
        <g id="Group_80" data-name="Group 80" transform="translate(70.837)">
          <path id="Path_312" data-name="Path 312" d="M148.79,23.6a270.41,270.41,0,0,1,1.76,35.77c-.47,18.07,8.42,26.78,8.42,26.78s-3.76-2.4-11.05,1.44-19.91,24.89-50.87.73c0,0-12.78-7.54-23.22-4.52,0,0,10.58-14.38,12.89-27.03S81.97,26.82,100.84,10Z" transform="translate(-73.83 0.001)" fill="#208ced"/>
          <path id="Path_313" data-name="Path 313" d="M116.51.3s23.7-4.19,31.28,18.72c6.57,19.86-6.58,38.39-6.58,38.39l-41.99-7.7Z" transform="translate(-73.83 0.001)" fill="#208ced"/>
          <g id="Group_78" data-name="Group 78" transform="translate(24.157 5.361)">
            <path id="Path_314" data-name="Path 314" d="M139.91,13.36a11.677,11.677,0,0,1,3.55,6.83c1.22,7.71,3.58,23.75.54,31.76-3.95,10.42-12.8,16.75-26.55,13.55,0,0-16.03-1.38-19.04-25.15C94.14,6.64,123.23-1.95,139.91,13.36Z" transform="translate(-97.987 -5.36)" fill="#fe9575"/>
            <g id="Group_76" data-name="Group 76" transform="translate(0.052)">
              <path id="Path_315" data-name="Path 315" d="M131.98,9.72s1.41,5.82-13.61,11.14A19.709,19.709,0,0,0,104.81,39L98.1,31.81S95.98,9.04,116.74,5.82C116.74,5.82,128.34,3.58,131.98,9.72Z" transform="translate(-98.039 -5.36)" fill="#171717"/>
              <path id="Path_316" data-name="Path 316" d="M130.32,9.54a20.581,20.581,0,0,0,7.59,7.01c4.5,2.4,6.17,4.85,6.17,4.85S141.77,5.54,121.51,5.36Z" transform="translate(-98.039 -5.36)" fill="#171717"/>
            </g>
            <g id="Group_77" data-name="Group 77" transform="translate(20.102 17.673)">
              <path id="Path_317" data-name="Path 317" d="M139.84,37.13a1.832,1.832,0,1,0,1.4-2.18A1.837,1.837,0,0,0,139.84,37.13Z" transform="translate(-118.089 -23.033)" fill="#171717"/>
              <path id="Path_318" data-name="Path 318" d="M124.36,36.81a1.832,1.832,0,1,0,1.4-2.18A1.837,1.837,0,0,0,124.36,36.81Z" transform="translate(-118.089 -23.033)" fill="#171717"/>
              <path id="Path_319" data-name="Path 319" d="M136.61,40.29l1.63,4.43-2.97.67" transform="translate(-118.089 -23.033)" fill="none" stroke="#e56b53" stroke-linecap="round" stroke-linejoin="round" stroke-miterlimit="10" stroke-width="1.085"/>
              <path id="Path_320" data-name="Path 320" d="M129.63,24.72h0a2.123,2.123,0,0,1-1.83,2.57,24.409,24.409,0,0,0-7.07,1.85,1.857,1.857,0,0,1-2.45-.82h0a1.932,1.932,0,0,1,.68-2.41,12.213,12.213,0,0,1,8.54-2.87A2.191,2.191,0,0,1,129.63,24.72Z" transform="translate(-118.089 -23.033)" fill="#171717"/>
              <path id="Path_321" data-name="Path 321" d="M138.61,24.96h0c-.13,1.22.47,2.4,1.31,2.53a12.236,12.236,0,0,1,4.75,1.77c.62.41,1.32.05,1.58-.84h0a2.593,2.593,0,0,0-.54-2.38,6.922,6.922,0,0,0-5.76-2.76C139.28,23.32,138.72,23.97,138.61,24.96Z" transform="translate(-118.089 -23.033)" fill="#171717"/>
              <path id="Path_322" data-name="Path 322" d="M136.53,50.64s-5.79,1.94-9.03-2.29" transform="translate(-118.089 -23.033)" fill="none" stroke="#e56b53" stroke-linecap="round" stroke-linejoin="round" stroke-miterlimit="10" stroke-width="1.085"/>
            </g>
          </g>
          <g id="Group_79" data-name="Group 79" transform="translate(13.315 0.108)">
            <path id="Path_323" data-name="Path 323" d="M130.45,6.38S99.32,5.47,104.81,39s24.95,26.68,24.95,26.68L113.93,77.25S88.42,71.38,87.22,41.09C86.63,26.17,89.4,9.92,100.68,3.76,113.19-3.07,127.6.77,130.45,6.38Z" transform="translate(-87.145 -0.108)" fill="#208ced"/>
            <path id="Path_324" data-name="Path 324" d="M111.28,58.52s4.29,10.94,22.62,11.68" transform="translate(-87.145 -0.108)" fill="none" stroke="#0f7ad3" stroke-linecap="round" stroke-linejoin="round" stroke-miterlimit="10" stroke-width="0.814"/>
            <path id="Path_325" data-name="Path 325" d="M145.48,48.52s.99,26.79-31.55,28.74" transform="translate(-87.145 -0.108)" fill="none" stroke="#0f7ad3" stroke-linecap="round" stroke-linejoin="round" stroke-miterlimit="10" stroke-width="0.814"/>
            <path id="Path_326" data-name="Path 326" d="M154.78,80.96s-5.54-5.03-16.94-3.76-26.15,4.85-36.28-9.38C89.2,50.45,88.25,31.4,90.35,17.97" transform="translate(-87.145 -0.108)" fill="none" stroke="#0f7ad3" stroke-linecap="round" stroke-linejoin="round" stroke-miterlimit="10" stroke-width="0.814"/>
          </g>
        </g>
      </g>
    </g>
  </g>
</svg>
