<svg xmlns="http://www.w3.org/2000/svg" width="298.571" height="359.335" viewBox="0 0 298.571 359.335">
  <g id="Group_126" data-name="Group 126" transform="translate(0 0)">
    <g id="Group_125" data-name="Group 125">
      <rect id="Rectangle_21" data-name="Rectangle 21" width="298.571" height="325.571" transform="translate(298.571 325.571) rotate(180)" fill="#d4e5ee"/>
      <g id="Group_124" data-name="Group 124" transform="translate(28.244 17.014)">
        <g id="Group_115" data-name="Group 115" transform="translate(58.299)">
          <path id="Path_351" data-name="Path 351" d="M65.53,57.042c0,26.456,24.495,47.916,51.653,47.916s49.193-21.442,49.193-47.879c0-26.456-22.034-47.879-49.193-47.879S65.53,30.587,65.53,57.042Z" transform="translate(-45.947 -9.2)" fill="#171717"/>
          <path id="Path_352" data-name="Path 352" d="M74.9,32.562s-1.61,16.465-6.753,25.568c-7.6,13.431-15.189,29.823-12.728,45.419l132.315,3.811s.87-25.512-11.211-36.557-3.626-39.332-3.626-39.332Z" transform="translate(-54.945 9.73)" fill="#171717"/>
          <g id="Group_111" data-name="Group 111" transform="translate(97.839 59.7)">
            <path id="Path_353" data-name="Path 353" d="M108.534,62.45a16.258,16.258,0,1,0,10.841-20.276A16.253,16.253,0,0,0,108.534,62.45Z" transform="translate(-107.829 -41.469)" fill="#8b3921"/>
          </g>
          <path id="Path_354" data-name="Path 354" d="M121.753,80.865l-1.2,48.823L77.5,123.342,85.1,49.47Z" transform="translate(-35.772 25.031)" fill="#c47059"/>
          <path id="Path_355" data-name="Path 355" d="M112.509,91.285S89.809,91.71,87.7,64.94l25.216,11.119Z" transform="translate(-27.101 38.181)" fill="#8b3921"/>
          <path id="Path_356" data-name="Path 356" d="M148.394,27.675A20.31,20.31,0,0,1,155,39.219c2.646,13.228,7.844,38.814,3.164,52.856-6.087,18.26-20.906,29.786-44.864,25.235,0,0-28.972-4.736-34.6-40.146C69.471,19.2,118.535,2.441,148.394,27.675Z" transform="translate(-35.717 -3.181)" fill="#c47059"/>
          <g id="Group_112" data-name="Group 112" transform="translate(77.154 47.844)">
            <path id="Path_357" data-name="Path 357" d="M116.738,46.424A3.166,3.166,0,1,0,119,42.558,3.167,3.167,0,0,0,116.738,46.424Z" transform="translate(-79.661 -28.777)" fill="#171717"/>
            <path id="Path_358" data-name="Path 358" d="M102.288,46.714a3.166,3.166,0,1,0,2.257-3.867A3.167,3.167,0,0,0,102.288,46.714Z" transform="translate(-91.943 -28.53)" fill="#171717"/>
            <path id="Path_359" data-name="Path 359" d="M114.683,47.68l3.127,7.53L112.74,56.56" transform="translate(-82.97 -24.334)" fill="none" stroke="#8b3921" stroke-linecap="round" stroke-linejoin="round" stroke-miterlimit="10" stroke-width="1.03"/>
            <path id="Path_360" data-name="Path 360" d="M117.113,38.889h0a3.661,3.661,0,0,1-3.793,3.9,42.4,42.4,0,0,0-12.562,1.314A3.194,3.194,0,0,1,96.8,42.071h0a3.338,3.338,0,0,1,1.795-3.922,21.039,21.039,0,0,1,15.337-2.664A3.771,3.771,0,0,1,117.113,38.889Z" transform="translate(-96.648 -35.061)" fill="#171717"/>
            <path id="Path_361" data-name="Path 361" d="M114.953,38.861h0c.222,2.109,1.665,3.867,3.108,3.811a21.455,21.455,0,0,1,8.658,1.277c1.184.463,2.239-.389,2.368-1.98h0a4.449,4.449,0,0,0-1.776-3.83c-2.239-1.61-5.754-3.959-10.712-2.59C115.49,35.845,114.768,37.159,114.953,38.861Z" transform="translate(-81.113 -34.996)" fill="#171717"/>
            <path id="Path_362" data-name="Path 362" d="M122.661,57.514,104.9,55.46s-1.11,7.271,7.678,8.288C121.366,64.747,122.661,57.514,122.661,57.514Z" transform="translate(-89.672 -17.721)" fill="#fff"/>
          </g>
          <g id="Group_113" data-name="Group 113" transform="translate(31.503 0.265)">
            <path id="Path_363" data-name="Path 363" d="M89.478,68.075S110.7,54.219,99.8,27.8c0,0-29.36,8.732-24.513,12.432C80.117,43.951,89.478,68.075,89.478,68.075Z" transform="translate(-69.614 6.346)" fill="#171717"/>
            <path id="Path_364" data-name="Path 364" d="M96.037,51.426s25.568,1.665,72.152.074c0,0-2.572-37.926-47.935-41.9C78.2,5.915,65.2,43.156,75.15,75.347l18.278,4.792Z" transform="translate(-71.973 -9.343)" fill="#171717"/>
          </g>
          <g id="Group_114" data-name="Group 114" transform="translate(20.909 52.724)">
            <circle id="Ellipse_22" data-name="Ellipse 22" cx="15.762" cy="15.762" r="15.762" transform="matrix(0.819, -0.574, 0.574, 0.819, 0, 18.105)" fill="#c47059"/>
            <path id="Path_365" data-name="Path 365" d="M74.27,47.259s11.563-3.312,14.634,9.4" transform="translate(-59.426 -29.903)" fill="none" stroke="#8b3921" stroke-linecap="round" stroke-linejoin="round" stroke-miterlimit="10" stroke-width="0.968"/>
          </g>
        </g>
        <g id="Group_123" data-name="Group 123" transform="translate(0 144.661)">
          <g id="Group_116" data-name="Group 116" transform="translate(162.466 8.874)">
            <path id="Path_366" data-name="Path 366" d="M141.735,215.082,117,129.98l42.94,1.665,18.315,83.437Z" transform="translate(-115.261 -60.067)" fill="#c47059"/>
            <path id="Path_367" data-name="Path 367" d="M121.074,92.19s36.686,1.795,54.632,78.553L116.06,198.179Z" transform="translate(-116.06 -92.19)" fill="#fdac52"/>
          </g>
          <g id="Group_117" data-name="Group 117" transform="translate(33.702)">
            <path id="Path_368" data-name="Path 368" d="M179.215,93.219s32.461,79.515,9.669,104.435l-34.409,50.6H74.98s-35.418-50.821-34.6-101.382S79.442,90.98,79.442,90.98l93.008,1.11Z" transform="translate(-40.362 -84.344)" fill="#fdac52"/>
            <path id="Path_369" data-name="Path 369" d="M159.584,95.121s-32.265-7.6-39.72-7.6c0,0-20.665-1.573-57.444,6.494,0,0,8.362,6.66,20.609,17.557a48.49,48.49,0,0,0,76.555-16.447Z" transform="translate(-25.823 -87.393)" fill="#c47059"/>
            <path id="Path_370" data-name="Path 370" d="M125.55,114.35s14.8,22.645,2.516,55.742" transform="translate(25.051 -64.479)" fill="none" stroke="#e5892c" stroke-linecap="round" stroke-linejoin="round" stroke-miterlimit="10" stroke-width="1.008"/>
          </g>
          <g id="Group_122" data-name="Group 122" transform="translate(0 6.617)">
            <g id="Group_119" data-name="Group 119">
              <path id="Path_371" data-name="Path 371" d="M86.927,129.32,59.713,233.311a20.052,20.052,0,0,1-25.438,15.244h0a20.082,20.082,0,0,1-14.134-21.867l15.577-86.527Z" transform="translate(-11.279 -58.371)" fill="#c47059"/>
              <g id="Group_118" data-name="Group 118">
                <path id="Path_372" data-name="Path 372" d="M102.5,90.97s-46.362,1.277-56.722,18.778c-10.379,17.5-30.507,74-30.507,74l78.46,12.765Z" transform="translate(-15.27 -90.97)" fill="#fdac52"/>
                <path id="Path_373" data-name="Path 373" d="M52.34,166.33l11.637,2.054,7.067-43.754" transform="translate(16.241 -62.358)" fill="none" stroke="#e5892c" stroke-linecap="round" stroke-linejoin="round" stroke-miterlimit="10" stroke-width="1.008"/>
              </g>
            </g>
            <g id="Group_121" data-name="Group 121" transform="translate(8.662 135.958)">
              <g id="Group_120" data-name="Group 120" transform="translate(0 2.444)">
                <path id="Path_374" data-name="Path 374" d="M160.034,184.65,44.85,217.914c-9.065,2.664-21.738-6.013-24.273-15.115h0c-2.812-10.138,4.181-27.769,14.634-28.824l118.5-8.2Z" transform="translate(-19.952 -165.78)" fill="#c47059"/>
              </g>
              <path id="Path_375" data-name="Path 375" d="M92.26,166.921s52.3-12.506,52.3,18.852H98.569Z" transform="translate(38.513 -164.459)" fill="#c47059"/>
            </g>
          </g>
        </g>
      </g>
    </g>
  </g>
</svg>
