<svg id="Group_62" data-name="Group 62" xmlns="http://www.w3.org/2000/svg" xmlns:xlink="http://www.w3.org/1999/xlink" width="177.03" height="196.47" viewBox="0 0 177.03 196.47">
  <defs>
    <clipPath id="clip-path">
      <path id="Path_300" data-name="Path 300" d="M177.03,107.96A88.515,88.515,0,0,1,0,107.96C0,59.08,37.2,0,86.08,0S177.03,59.08,177.03,107.96Z"/>
    </clipPath>
  </defs>
  <g id="Group_61" data-name="Group 61" clip-path="url(#clip-path)">
    <g id="Group_56" data-name="Group 56" transform="translate(6.021 80.029)">
      <g id="Group_52" data-name="Group 52">
        <g id="Group_49" data-name="Group 49">
          <g id="Group_48" data-name="Group 48">
            <g id="Group_47" data-name="Group 47">
              <path id="Path_272" data-name="Path 272" d="M43.37,121.23s8.78-3.08,5.26-14.25L43.52,89.67a2.662,2.662,0,0,0-3.65-1.62h0a2.679,2.679,0,0,0-1.56,2.54l.26,9.33L24.19,81.25a2.894,2.894,0,0,0-4.38-.4h0a2.882,2.882,0,0,0-.4,3.64l8.87,13.2-.47.65L16.68,86.02a2.789,2.789,0,0,0-4.27.57h0a2.8,2.8,0,0,0,.46,3.5l10.42,12.84-.5.87L11.71,94.01c-2.88-2.46-4.64-1.4-5.35-.32h0c-.73,1.46,1.81,3.9,2.77,4.62l11.02,10.54-.43.81L8.91,100.82a2,2,0,0,0-2.83,1.32h0a2.016,2.016,0,0,0,.99,2.25L19.2,115.08s9.99,13.07,17.47,10.03Z" transform="translate(-6.021 -80.029)" fill="#fdc3ab"/>
              <path id="Path_273" data-name="Path 273" d="M38.56,99.92s-6.48,5.93-3.65,14.05" transform="translate(-6.021 -80.029)" fill="none" stroke="#fe9575" stroke-linecap="round" stroke-linejoin="round" stroke-miterlimit="10" stroke-width="0.982"/>
            </g>
          </g>
          <path id="Path_274" data-name="Path 274" d="M55.28,142.4l-8.06-27.59L31.14,120.9l7.33,27.43Z" transform="translate(-6.021 -80.029)" fill="#fdc3ab"/>
        </g>
        <g id="Group_51" data-name="Group 51" transform="translate(23.322 44.581)">
          <path id="Path_275" data-name="Path 275" d="M54.59,135.11l-4.08-10.5L32.82,129.1l3.2,12.63Z" transform="translate(-29.343 -124.61)" fill="#fff"/>
          <g id="Group_50" data-name="Group 50" transform="translate(0 6.903)">
            <path id="Path_276" data-name="Path 276" d="M76.17,186.08,60.28,137.6a9.025,9.025,0,0,0-10.75-5.81l-13.39,3.4a9.012,9.012,0,0,0-6.6,10.6l9.51,49.93A16.943,16.943,0,0,0,57.95,209h0C68.03,207.6,78.81,195.91,76.17,186.08Z" transform="translate(-29.343 -131.513)" fill="#fd404e"/>
          </g>
        </g>
      </g>
      <g id="Group_54" data-name="Group 54" transform="translate(57.497 13.621)">
        <path id="Path_277" data-name="Path 277" d="M70.82,116.24s-18.19,35.19,2.85,102.94l26.9-23.88Z" transform="translate(-63.518 -93.65)" fill="#fd404e"/>
        <path id="Path_278" data-name="Path 278" d="M154.87,226.2s-33.19,26.62-64.81,3.55l-1.77-65.6L83.85,119.6l6.21-10.42,18.49-4.75,22.12,2.19,2.9,39.15Z" transform="translate(-63.518 -93.65)" fill="#fdac52"/>
        <path id="Path_279" data-name="Path 279" d="M119.05,110.73s-15.74,17.55-30.72,3.28l7.3-20.36,24.39,1.95Z" transform="translate(-63.518 -93.65)" fill="#fdc3ab"/>
        <g id="Group_53" data-name="Group 53" transform="translate(0.285 4.47)">
          <path id="Path_280" data-name="Path 280" d="M91.37,138.2c1.66,25.97,4.05,73.65,1.64,104.99a1.97,1.97,0,0,1-3.65.88l-.09-.15a29.181,29.181,0,0,1-4.18-13.47l-3.88-69.98L70.46,123.51a11.282,11.282,0,0,1,3.22-11.46c3.36-3.08,12.61-10.5,20.35-13.93l-.44,2.39A155.084,155.084,0,0,0,91.37,138.2Z" transform="translate(-63.804 -98.12)" fill="#fd404e"/>
          <path id="Path_281" data-name="Path 281" d="M63.83,148.33s-.73,17.24,5.49,55.11" transform="translate(-63.804 -98.12)" fill="none" stroke="#b7152c" stroke-linecap="round" stroke-linejoin="round" stroke-miterlimit="10" stroke-width="1.071"/>
        </g>
      </g>
      <g id="Group_55" data-name="Group 55" transform="translate(102.539 15.571)">
        <path id="Path_282" data-name="Path 282" d="M108.56,126.54s1.06,61.63,26.24,115.51a6.4,6.4,0,0,0,7.4,3.48c6.63-1.74,19.2-6.87,30.85-26.54l-5.88-100.07a12.063,12.063,0,0,0-5.72-9.55c-5.74-3.53-29.23-10.39-41.41-13.77C120.03,95.6,112.28,105.3,108.56,126.54Z" transform="translate(-108.56 -95.6)" fill="#fd404e"/>
        <path id="Path_283" data-name="Path 283" d="M161.5,109.41s-26.73,25.05-6.77,76.38l3.35,18.14a18.627,18.627,0,0,0,22.69,14.72h0a18.619,18.619,0,0,0,14.05-20.89C190.56,169.97,180.12,116.99,161.5,109.41Z" transform="translate(-108.56 -95.6)" fill="#fd404e"/>
        <path id="Path_284" data-name="Path 284" d="M156.25,116.24s-14.17,13.25-6.53,53.49,13.05,63.05,13.05,63.05" transform="translate(-108.56 -95.6)" fill="none" stroke="#b7152c" stroke-linecap="round" stroke-linejoin="round" stroke-miterlimit="10" stroke-width="1.071"/>
      </g>
    </g>
    <g id="Group_60" data-name="Group 60" transform="translate(58.206 11.456)">
      <path id="Path_285" data-name="Path 285" d="M118.11,25.17S115.75,10.55,97.47,11.5c-11.7.61-10.96,6.33-22.71,7.25-10.68.84-19.8,9.43-15.44,21.63C62.98,50.61,79.94,54.2,79.94,54.2Z" transform="translate(-58.206 -11.456)" fill="#380c1d"/>
      <circle id="Ellipse_20" data-name="Ellipse 20" cx="7.72" cy="7.72" r="7.72" transform="matrix(0.101, -0.995, 0.995, 0.101, 8.064, 58.133)" fill="#fe9575"/>
      <path id="Path_286" data-name="Path 286" d="M88.65,77.71l5.04,31.7L120.03,95.6,109.04,56.42Z" transform="translate(-58.206 -11.456)" fill="#fdc3ab"/>
      <path id="Path_287" data-name="Path 287" d="M90.93,92.06s18.71-3.2,17.97-21.88L89.07,80.55Z" transform="translate(-58.206 -11.456)" fill="#fe9575"/>
      <path id="Path_288" data-name="Path 288" d="M72.83,30.76a16.16,16.16,0,0,0-3.3,10.46c.22,7.34.91,25.27,5.26,32.6,5.53,9.32,15.01,13.85,27.53,8.38,0,0,11.73-3.06,13.79-27.47C119.23,17.56,85.87,12.55,72.83,30.76Z" transform="translate(-58.206 -11.456)" fill="#fdc3ab"/>
      <g id="Group_58" data-name="Group 58" transform="translate(11.109 31.727)">
        <path id="Path_289" data-name="Path 289" d="M77.92,58.2a1.769,1.769,0,1,1-1.65-1.88A1.769,1.769,0,0,1,77.92,58.2Z" transform="translate(-69.315 -43.183)" fill="#171717"/>
        <path id="Path_290" data-name="Path 290" d="M93.35,55.53a1.769,1.769,0,1,1-1.65-1.88A1.769,1.769,0,0,1,93.35,55.53Z" transform="translate(-69.315 -43.183)" fill="#171717"/>
        <path id="Path_291" data-name="Path 291" d="M81.29,60.11,80.63,65l2.61-.11" transform="translate(-69.315 -43.183)" fill="none" stroke="#fe9575" stroke-linecap="round" stroke-linejoin="round" stroke-miterlimit="10" stroke-width="1.023"/>
        <path id="Path_292" data-name="Path 292" d="M86.38,46.22h0a2.429,2.429,0,0,0,2.73,2.36,27.947,27.947,0,0,1,8.37.14,2.124,2.124,0,0,0,2.5-1.58h0a2.22,2.22,0,0,0-1.41-2.49,13.917,13.917,0,0,0-10.29-.87A2.5,2.5,0,0,0,86.38,46.22Z" transform="translate(-69.315 -43.183)" fill="#380c1d"/>
        <path id="Path_293" data-name="Path 293" d="M78.29,47.44h0c.1,1.4-.64,2.72-1.6,2.84a14.164,14.164,0,0,0-5.51,1.82c-.73.44-1.51.01-1.78-1.03h0a2.942,2.942,0,0,1,.72-2.7c1.28-1.31,3.3-3.25,6.71-2.92A1.94,1.94,0,0,1,78.29,47.44Z" transform="translate(-69.315 -43.183)" fill="#380c1d"/>
        <g id="Group_57" data-name="Group 57" transform="translate(4.355 9.797)">
          <path id="Path_294" data-name="Path 294" d="M73.67,71.53l4.29.1.77-2.24a2.5,2.5,0,0,1,2.09-1.68l9.67-1.08a2.5,2.5,0,0,1,2.33,1.05l2.42,1.78s11.64.98,11.55-15.17l3.11-1.31a17.383,17.383,0,0,0,3.48,14.86s-2.51,16.78-21.92,16.71C91.46,84.56,79.46,85.02,73.67,71.53Z" transform="translate(-73.67 -52.98)" fill="#380c1d"/>
          <path id="Path_295" data-name="Path 295" d="M82.78,71.3a7.332,7.332,0,0,0,6.26-.83" transform="translate(-73.67 -52.98)" fill="none" stroke="#fff" stroke-linecap="round" stroke-linejoin="round" stroke-miterlimit="10" stroke-width="1.018"/>
        </g>
      </g>
      <path id="Path_296" data-name="Path 296" d="M117.14,55.04l-10.35-.75-.11-13.05a2.765,2.765,0,0,0-2.39-2.77c-2.31-.25-5.57-1.36-6.2-5.58a16.148,16.148,0,0,1,2.13-11.07s19.99-6.1,24.93,8.5c3.45,10.2.34,30.94-12.75,40.93Z" transform="translate(-58.206 -11.456)" fill="#380c1d"/>
      <g id="Group_59" data-name="Group 59" transform="translate(51.229 35.669)">
        <path id="Path_297" data-name="Path 297" d="M126.67,56.4a8.629,8.629,0,1,1-7.96-9.25A8.632,8.632,0,0,1,126.67,56.4Z" transform="translate(-109.435 -47.125)" fill="#fdc3ab"/>
        <path id="Path_298" data-name="Path 298" d="M121.32,52.45s-6.57-.4-6.7,6.76" transform="translate(-109.435 -47.125)" fill="none" stroke="#fe9575" stroke-linecap="round" stroke-linejoin="round" stroke-miterlimit="10" stroke-width="1.023"/>
      </g>
      <path id="Path_299" data-name="Path 299" d="M102.25,24.18s-5.3,6.41-15.66,7.08-12.67-1.77-15.9,2.97c0,0-.96-14.38,17.52-17.54s18.72,9.08,18.72,9.08Z" transform="translate(-58.206 -11.456)" fill="#380c1d"/>
    </g>
  </g>
</svg>
