<svg id="whatsapp" xmlns="http://www.w3.org/2000/svg" width="45.216" height="45.216" viewBox="0 0 45.216 45.216">
  <g id="Group_3" data-name="Group 3">
    <path id="Path_35" data-name="Path 35" d="M22.614,0H22.6A22.594,22.594,0,0,0,4.3,35.859l-2.818,8.4,8.69-2.778A22.6,22.6,0,1,0,22.614,0ZM35.769,31.926c-.545,1.54-2.71,2.818-4.437,3.191-1.181.252-2.724.452-7.919-1.7-6.644-2.753-10.923-9.5-11.256-9.942S9.473,19.9,9.473,16.654a7.218,7.218,0,0,1,2.312-5.5A3.285,3.285,0,0,1,14.1,10.34c.28,0,.531.014.757.025.664.028,1,.068,1.436,1.116.545,1.314,1.874,4.558,2.032,4.892a1.346,1.346,0,0,1,.1,1.224,3.907,3.907,0,0,1-.732,1.037c-.333.384-.65.678-.983,1.091-.305.359-.65.743-.266,1.407A20.067,20.067,0,0,0,20.1,25.691a16.621,16.621,0,0,0,5.3,3.27A1.429,1.429,0,0,0,27,28.71a27.354,27.354,0,0,0,1.766-2.34,1.262,1.262,0,0,1,1.622-.492c.61.212,3.841,1.809,4.5,2.139s1.1.492,1.263.772A5.63,5.63,0,0,1,35.769,31.926Z" fill="#6a7273"/>
  </g>
</svg>
