<svg xmlns="http://www.w3.org/2000/svg" width="22.193" height="19.745" viewBox="0 0 22.193 19.745">
  <path id="heart" d="M11.1,19.745a1.3,1.3,0,0,1-.858-.322c-.9-.784-1.761-1.521-2.524-2.171l0,0A46.933,46.933,0,0,1,2.2,12.077,8.261,8.261,0,0,1,0,6.67,6.937,6.937,0,0,1,1.761,1.932,5.968,5.968,0,0,1,6.2,0,5.582,5.582,0,0,1,9.687,1.2,7.134,7.134,0,0,1,11.1,2.676,7.135,7.135,0,0,1,12.507,1.2,5.582,5.582,0,0,1,15.994,0a5.968,5.968,0,0,1,4.439,1.932,6.936,6.936,0,0,1,1.76,4.737,8.259,8.259,0,0,1-2.2,5.407,46.927,46.927,0,0,1-5.51,5.172c-.764.651-1.63,1.389-2.528,2.175a1.3,1.3,0,0,1-.858.322ZM6.2,1.3A4.682,4.682,0,0,0,2.716,2.814,5.643,5.643,0,0,0,1.3,6.67a6.95,6.95,0,0,0,1.9,4.578,46.185,46.185,0,0,0,5.352,5.012l0,0c.766.652,1.633,1.392,2.536,2.182.909-.791,1.778-1.532,2.545-2.185a46.2,46.2,0,0,0,5.352-5.012,6.951,6.951,0,0,0,1.9-4.578,5.643,5.643,0,0,0-1.416-3.856A4.682,4.682,0,0,0,15.994,1.3a4.312,4.312,0,0,0-2.692.932,6.308,6.308,0,0,0-1.5,1.736.821.821,0,0,1-1.41,0,6.3,6.3,0,0,0-1.5-1.736A4.312,4.312,0,0,0,6.2,1.3Zm0,0" transform="translate(0)" fill="#ff6584"/>
</svg>
