<svg id="logo" xmlns="http://www.w3.org/2000/svg" width="44.197" height="44.197" viewBox="0 0 44.197 44.197">
  <path id="Path_31" data-name="Path 31" d="M32,0H12.2A12.21,12.21,0,0,0,0,12.2V32A12.21,12.21,0,0,0,12.2,44.2H32A12.211,12.211,0,0,0,44.2,32V12.2A12.21,12.21,0,0,0,32,0Zm8.276,32A8.285,8.285,0,0,1,32,40.275H12.2A8.284,8.284,0,0,1,3.921,32V12.2A8.285,8.285,0,0,1,12.2,3.921H32A8.285,8.285,0,0,1,40.275,12.2V32Z" fill="#6a7273"/>
  <path id="Path_32" data-name="Path 32" d="M52.356,40.97A11.388,11.388,0,1,0,63.745,52.358,11.4,11.4,0,0,0,52.356,40.97Zm0,18.855a7.467,7.467,0,1,1,7.467-7.466A7.475,7.475,0,0,1,52.356,59.825Z" transform="translate(-30.258 -30.26)" fill="#6a7273"/>
  <path id="Path_33" data-name="Path 33" d="M121.8,28.251a2.874,2.874,0,1,0,2.034.842A2.887,2.887,0,0,0,121.8,28.251Z" transform="translate(-87.832 -20.866)" fill="#6a7273"/>
</svg>
