<svg id="twitter" xmlns="http://www.w3.org/2000/svg" width="46.508" height="38.757" viewBox="0 0 46.508 38.757">
  <g id="Group_2" data-name="Group 2">
    <path id="Path_34" data-name="Path 34" d="M46.508,52.588a19.492,19.492,0,0,1-5.494,1.544,9.684,9.684,0,0,0,4.194-5.405,18.768,18.768,0,0,1-6.046,2.367A9.445,9.445,0,0,0,32.2,48a9.657,9.657,0,0,0-9.528,9.782,10.318,10.318,0,0,0,.221,2.23A26.771,26.771,0,0,1,3.238,49.783a10.039,10.039,0,0,0-1.305,4.943,9.861,9.861,0,0,0,4.235,8.127,9.236,9.236,0,0,1-4.308-1.2v.107A9.766,9.766,0,0,0,9.5,71.364a9.292,9.292,0,0,1-2.5.322,8.226,8.226,0,0,1-1.805-.167A9.66,9.66,0,0,0,14.1,78.332,18.856,18.856,0,0,1,2.282,82.5,17.415,17.415,0,0,1,0,82.368a26.357,26.357,0,0,0,14.627,4.388c17.545,0,27.138-14.907,27.138-27.827,0-.432-.015-.85-.035-1.264A19.3,19.3,0,0,0,46.508,52.588Z" transform="translate(0 -48)" fill="#6a7273"/>
  </g>
</svg>
