<svg xmlns="http://www.w3.org/2000/svg" width="1106.374" height="651.156" viewBox="0 0 1106.374 651.156">
  <g id="Group_145" data-name="Group 145" transform="translate(-878.995 -429.5)">
    <path id="Path_1" data-name="Path 1" d="M1364.995,751.717s7.483-194.663,325.52-267.624S2096.48,259.6,2096.48,259.6s97.282-160.889,284.363-159.019,26.191,0,26.191,0v651.14Z" transform="translate(-486 328.939)" fill="rgba(221,240,241,0.5)"/>
    <g id="undraw_creative_thinking_b3bc" transform="translate(1412 694)">
      <ellipse id="Ellipse_1" data-name="Ellipse 1" cx="244.378" cy="23.867" rx="244.378" ry="23.867" transform="translate(0 322.304)" fill="#3f3d56"/>
      <ellipse id="Ellipse_2" data-name="Ellipse 2" cx="115.185" cy="17.381" rx="115.185" ry="17.381" transform="translate(56.555 325.417)" opacity="0.1"/>
      <path id="Path_2" data-name="Path 2" d="M251.173,354.14a97.943,97.943,0,1,0,19.841,193.873,98,98,0,0,1,63.891-146.772,97.886,97.886,0,0,0-83.732-47.1Z" transform="translate(-136.834 -218.855)" fill="#c7d8d9"/>
      <path id="Path_3" data-name="Path 3" d="M163.114,455.555a98,98,0,0,1,113.653-96.679,97.957,97.957,0,1,0-41.242,191.255A97.974,97.974,0,0,1,163.114,455.555Z" transform="translate(-136.834 -219.509)" opacity="0.1"/>
      <path id="Path_4" data-name="Path 4" d="M364.515,275.075a97.9,97.9,0,1,0-146.762-63.886,97.979,97.979,0,0,1,146.762,63.886Z" transform="translate(-166.911 -93.4)" fill="#c7d8d9"/>
      <path id="Path_5" data-name="Path 5" d="M490.1,191.343a97.8,97.8,0,0,1-39.8,78.818c.42,1.624.809,3.258,1.152,4.914A97.953,97.953,0,0,0,400.613,93.4c-1.416,0-2.823.036-4.223.1A97.948,97.948,0,0,1,490.1,191.343Z" transform="translate(-253.831 -93.4)" opacity="0.1"/>
      <path id="Path_6" data-name="Path 6" d="M481.542,515.56a29.237,29.237,0,0,0-4.555,2.885,9.8,9.8,0,0,0-3.17,4.291,39.512,39.512,0,0,1-1.961-5.8,96.515,96.515,0,0,0-4.005-10.424,13.889,13.889,0,0,0,6.3-4.841c3.113,3.087,6.283,6.3,7.824,10.377.265.706,1.038,1.458,1.219,2.075C483.441,515.041,482.217,515.186,481.542,515.56Z" transform="translate(-288.214 -289.839)" fill="#ffbfc5"/>
      <path id="Path_7" data-name="Path 7" d="M329,691.5c0,23.151,16.7,25.605,37.311,25.605s37.305-2.454,37.305-25.605-16.7-31.946-37.305-31.946S329,668.35,329,691.5Z" transform="translate(-221.406 -365.803)" fill="#3f3d56"/>
      <path id="Path_8" data-name="Path 8" d="M545.1,673.192a28.573,28.573,0,0,1,9.308,4.981.959.959,0,0,1,.42.571c.073.519-.643.752-1.162.9-1.556.441-2.506,1.878-3.632,3s-2.931,2.008-4.244,1.11a4.152,4.152,0,0,1-.892-.939l-5.541-7.222a33.556,33.556,0,0,1,5.9-2.594" transform="translate(-322.621 -372.275)" fill="#f1f1f1"/>
      <path id="Path_9" data-name="Path 9" d="M557.929,675.415c.737.747,1.038,1.826,1.774,2.594a6.35,6.35,0,0,0,1.64,1.136l4.244,2.335a11.735,11.735,0,0,0,2.075.97,18.422,18.422,0,0,0,2.433.519,17.522,17.522,0,0,1,3.435,1.038c.83.342,1.759.929,1.754,1.826a1.982,1.982,0,0,1-.519,1.183c-1.671,2.107-4.633,2.594-7.311,2.859-5.79.612-11.716,1.069-17.376-.3a7.411,7.411,0,0,1-3.056-1.323,5.782,5.782,0,0,1-1.411-6.117,3.31,3.31,0,0,1,1.349-2.008c.9-.519,2.013-.275,3.046-.353a9.61,9.61,0,0,0,3.113-1c.648-.291,1.391-.669,1.557-1.437s-.711-1.432-.519-2.075C554.52,673.817,557.255,674.725,557.929,675.415Z" transform="translate(-325.479 -372.993)" fill="#575a89"/>
      <path id="Path_10" data-name="Path 10" d="M557.929,675.415c.737.747,1.038,1.826,1.774,2.594a6.35,6.35,0,0,0,1.64,1.136l4.244,2.335a11.735,11.735,0,0,0,2.075.97,18.422,18.422,0,0,0,2.433.519,17.522,17.522,0,0,1,3.435,1.038c.83.342,1.759.929,1.754,1.826a1.982,1.982,0,0,1-.519,1.183c-1.671,2.107-4.633,2.594-7.311,2.859-5.79.612-11.716,1.069-17.376-.3a7.411,7.411,0,0,1-3.056-1.323,5.782,5.782,0,0,1-1.411-6.117,3.31,3.31,0,0,1,1.349-2.008c.9-.519,2.013-.275,3.046-.353a9.61,9.61,0,0,0,3.113-1c.648-.291,1.391-.669,1.557-1.437s-.711-1.432-.519-2.075C554.52,673.817,557.255,674.725,557.929,675.415Z" transform="translate(-325.479 -372.993)" opacity="0.1"/>
      <path id="Path_11" data-name="Path 11" d="M576.135,716.194l1.785,1.178a3.192,3.192,0,0,1,1.292,1.276,2.934,2.934,0,0,1-.716,2.734,15.711,15.711,0,0,1-6.87,5.323,10.241,10.241,0,0,1-2.983.742,1.246,1.246,0,0,1-.69-.083c-.545-.291-.467-1.064-.472-1.681,0-1.78-1.365-3.227-2.594-4.54s-2.444-2.921-2.164-4.67a5.81,5.81,0,0,1,1.557-2.74,11.2,11.2,0,0,1,2.335-2.205c1.261-.825,1.7-.379,2.885.374Q572.835,714.025,576.135,716.194Z" transform="translate(-333.842 -390.6)" fill="#f1f1f1"/>
      <path id="Path_12" data-name="Path 12" d="M572.006,729.693a3.18,3.18,0,0,0,2.807-.633,7.029,7.029,0,0,0,1.821-2.345,19.083,19.083,0,0,0,1.131-2.48,5.3,5.3,0,0,1,1.6-2.714,3.335,3.335,0,0,1,3.632.265,20.011,20.011,0,0,1,2.8,2.677,18.9,18.9,0,0,0,7.938,4.415,86.048,86.048,0,0,0,8.966,1.915,5.086,5.086,0,0,1,1.723.555,3.472,3.472,0,0,1,1.282,3.777,8.254,8.254,0,0,1-2.221,3.559,8.946,8.946,0,0,1-2.973,2.3,9.491,9.491,0,0,1-3,.571,51.307,51.307,0,0,1-14.839-1.162,39.675,39.675,0,0,0-5.437-1.084c-1.116-.1-2.247-.068-3.362-.145a17.7,17.7,0,0,1-6.423-1.691,2.268,2.268,0,0,1-1.167-.975,2.4,2.4,0,0,1-.088-1.287l.742-6.506c.067-.566.254-1.271.82-1.359s.924.467,1.261.892a4.6,4.6,0,0,0,5.5,1.2" transform="translate(-335.503 -395.414)" fill="#575a89"/>
      <path id="Path_13" data-name="Path 13" d="M466.787,579.354c3.264-.368,7.051-.431,9.261,2,1.354,1.494,1.764,3.585,2.231,5.541a35.985,35.985,0,0,0,3.539,9.422,53.276,53.276,0,0,1,3.113,5.505,37.911,37.911,0,0,1,1.6,6.273,37.845,37.845,0,0,0,13.251,21.086c-1.178,3.2-4.587,5.033-7.9,5.853a4.353,4.353,0,0,1-2.475.078,4.417,4.417,0,0,1-1.6-1.183,54.982,54.982,0,0,1-4.322-5.3c-4.779-6.382-9.625-12.893-12.229-20.422-.913-2.646-1.826-5.707-4.395-6.833a8.346,8.346,0,0,0-4.711-.166,63.871,63.871,0,0,0-10.336,2.651c-3.59,1.25-7.7,2.786-10.984.877a8.187,8.187,0,0,1-3.564-5.572,22.955,22.955,0,0,1,0-6.8,7,7,0,0,1,.716-2.937,6.37,6.37,0,0,1,1.717-1.738,35.36,35.36,0,0,1,9.671-5.188c3.315-1.173,6.885-1.557,10.346-2.143Q463.233,579.753,466.787,579.354Z" transform="translate(-273.37 -327.125)" fill="#575a89"/>
      <path id="Path_14" data-name="Path 14" d="M466.787,579.354c3.264-.368,7.051-.431,9.261,2,1.354,1.494,1.764,3.585,2.231,5.541a35.985,35.985,0,0,0,3.539,9.422,53.276,53.276,0,0,1,3.113,5.505,37.911,37.911,0,0,1,1.6,6.273,37.845,37.845,0,0,0,13.251,21.086c-1.178,3.2-4.587,5.033-7.9,5.853a4.353,4.353,0,0,1-2.475.078,4.417,4.417,0,0,1-1.6-1.183,54.982,54.982,0,0,1-4.322-5.3c-4.779-6.382-9.625-12.893-12.229-20.422-.913-2.646-1.826-5.707-4.395-6.833a8.346,8.346,0,0,0-4.711-.166,63.871,63.871,0,0,0-10.336,2.651c-3.59,1.25-7.7,2.786-10.984.877a8.187,8.187,0,0,1-3.564-5.572,22.955,22.955,0,0,1,0-6.8,7,7,0,0,1,.716-2.937,6.37,6.37,0,0,1,1.717-1.738,35.36,35.36,0,0,1,9.671-5.188c3.315-1.173,6.885-1.557,10.346-2.143Q463.233,579.753,466.787,579.354Z" transform="translate(-273.37 -327.125)" opacity="0.1"/>
      <path id="Path_15" data-name="Path 15" d="M524.55,623.325a16.848,16.848,0,0,1,4.151,2.932,14.9,14.9,0,0,1,2.812,5.048,6.128,6.128,0,0,1,.488,1.951,2.215,2.215,0,0,1-.721,1.806,3.233,3.233,0,0,1-2.039.519c-.944,0-1.894,0-2.838-.073a4.743,4.743,0,0,1-1.681-.322,4.669,4.669,0,0,1-1.307-.991,18.386,18.386,0,0,1-4.021-5.427c-.685-1.51-1.816-5-.737-6.569S523.378,622.655,524.55,623.325Z" transform="translate(-312.444 -347.551)" fill="#ffbfc5"/>
      <path id="Path_16" data-name="Path 16" d="M408.785,623.87c4.83,1.557,9.972,1.723,15.021,2.195a125.446,125.446,0,0,1,25.034,4.95,13.437,13.437,0,0,1,4.722,2.195,14.038,14.038,0,0,1,2.74,3.487,58.894,58.894,0,0,1,3.6,6.288c.918,1.961,1.619,4.016,2.47,6a42.188,42.188,0,0,0,13.163,16.857c1.038.8,2.226,1.676,2.5,2.968a4.12,4.12,0,0,1-.389,2.439c-1.245,2.9-3.829,5.012-6.543,6.626a6.868,6.868,0,0,0-3.02,2.631c-4.12-1.7-7.186-5.334-9.734-8.987s-4.815-7.591-8.084-10.621a28.668,28.668,0,0,1-4.208-4.109c-1.728-2.449-2.195-5.8-4.519-7.689s-5.707-1.645-8.711-1.349a213.768,213.768,0,0,1-46.256-.519c-3.191-.379-6.47-.867-9.235-2.511s-4.919-4.716-4.53-7.907c.368-2.989,2.854-5.355,5.63-6.522s5.837-1.38,8.82-1.717A92.216,92.216,0,0,0,408.785,623.87Z" transform="translate(-242.458 -348.636)" fill="#575a89"/>
      <path id="Path_17" data-name="Path 17" d="M356.927,573.641c.379-2.532,1.359-4.929,1.977-7.414a44.84,44.84,0,0,1,1.173-4.633c0-.047.036-.088.052-.13a1.069,1.069,0,0,0,.789-.451,1.308,1.308,0,0,0,.068-.7,5.052,5.052,0,0,1,0-.742,53.06,53.06,0,0,1,3.31-4.9c2.075-2.963,3.9-6.112,5.707-9.256,1.484-2.594,2.968-5.157,4.192-7.866.924-2.029,1.7-4.151,2.714-6.112,3.632-7.056,10.128-12.26,17.122-16,6.714-3.585,13.973-6,21.029-8.852a4.783,4.783,0,0,1,.493.581c3.814,5.214,4.223,12.063,5.8,18.331.633,2.532,1.479,5.054,1.479,7.658,0,3.85-1.842,7.43-3.673,10.818a58.473,58.473,0,0,1-5.764,9.2c-1.079,1.339-2.267,2.594-3.352,3.917-4.452,5.453-7.02,12.162-9.521,18.746-1.442,3.814-3.808,7.191-5.4,10.948a42.881,42.881,0,0,1-1.733,4.364,4.619,4.619,0,0,1-3.668,2.594,5.5,5.5,0,0,1-1.354-.213c-5.671-1.458-10.419-5.188-15.13-8.685-.846-.623-1.691-1.235-2.594-1.8s-1.816-1.074-2.74-1.557l-2.107-1.157c-2.293-1.256-4.6-2.517-6.989-3.58a12.714,12.714,0,0,1-2.075-1.038,12.382,12.382,0,0,1,.2-2.081Z" transform="translate(-234.748 -292.206)" fill="#3f3d56"/>
      <circle id="Ellipse_3" data-name="Ellipse 3" cx="13.065" cy="13.065" r="13.065" transform="translate(183.247 199.155)" fill="#ffbfc5"/>
      <path id="Path_18" data-name="Path 18" d="M490.42,475.6a3.113,3.113,0,0,0,3.217,1.51,4.509,4.509,0,0,0,3-2.143,8.472,8.472,0,0,0,1.11-3.6,3.763,3.763,0,0,0-.545-2.849,6.257,6.257,0,0,0-1.655-1.162,6.3,6.3,0,0,1-2.075-2.075c-.363-.607-.628-1.266-.955-1.889-1.188-2.257-3.5-4.094-6.05-4.011a28.887,28.887,0,0,0-3.6.716c-4.052.711-8.452-1.432-12.214.239a11.416,11.416,0,0,0-2.553,1.7q-1.588,1.313-3.051,2.76a6.3,6.3,0,0,0-1.857,2.7c-.519,1.92.7,4.063-.073,5.889a8.678,8.678,0,0,1-.939,1.479c-.851,1.25.073,6.133,0,7.643a2.827,2.827,0,0,0,.519,2.075,3.408,3.408,0,0,0,2.594.758h1.7a2.153,2.153,0,0,0,.752-.078,2.278,2.278,0,0,0,.856-.654c1.411-1.489,1.712-6.351,3.762-6.33a1.463,1.463,0,0,1,.887.228c.368.27.477.773.742,1.147a2.169,2.169,0,0,0,2.516.591,5.675,5.675,0,0,0,2.143-1.733,8.444,8.444,0,0,1,2-1.915c1.095-.638,2.33-.913,3.393-1.634a29.4,29.4,0,0,0,2.19-2.138,1.84,1.84,0,0,1,2.324-.13C489.792,473.376,489.844,474.455,490.42,475.6Z" transform="translate(-285.313 -269.489)" fill="#3f3d56"/>
      <path id="Path_19" data-name="Path 19" d="M446.114,534.807a20.791,20.791,0,0,1,9.1.726,4.836,4.836,0,0,1,2.537,1.51,4.556,4.556,0,0,1,.726,1.9,15.353,15.353,0,0,1-1.105,9.256,1.225,1.225,0,0,0-.15.986,1.744,1.744,0,0,0,.519.519,1.806,1.806,0,0,1-.109,2.693c-.244.176-.566.332-.612.628s.254.581.493.809a2.9,2.9,0,0,1,.809,2.667,5.848,5.848,0,0,0-.265,1.178,3.845,3.845,0,0,0,.431,1.406,6.154,6.154,0,0,1,.389,3.113,3.43,3.43,0,0,0-.036,1.52,3.54,3.54,0,0,0,.581.913c.939,1.266,1.141,3.383-.218,4.151a3.149,3.149,0,0,1,1.676,3.248c.815-.431,1.8.125,2.48.747s1.37,1.391,2.288,1.437c.643.031,1.323-.3,1.9-.036.892.4.861,1.847,1.738,2.278.768.384,1.842-.239,2.5.316.228.192.342.488.566.69.493.457,1.271.265,1.946.234a4.632,4.632,0,0,1,3.886,2.376,11.57,11.57,0,0,1,1.333,4.55,6.025,6.025,0,0,1-.052,2.62,2.247,2.247,0,0,1-1.842,1.66c-8.016.519-15.929-1.406-23.737-3.305A18.457,18.457,0,0,1,447.349,583a19.954,19.954,0,0,1-4.26-4.779,62.329,62.329,0,0,1-6.257-10.06c-2.117-4.623-3.061-9.687-3.985-14.694a13.668,13.668,0,0,1-.337-4.1,11.616,11.616,0,0,1,1.806-4.493,48.91,48.91,0,0,1,3.632-5.152A13.466,13.466,0,0,1,446.114,534.807Z" transform="translate(-271.194 -305.683)" opacity="0.1"/>
      <path id="Path_20" data-name="Path 20" d="M447.153,533.807a20.758,20.758,0,0,1,9.106.732,4.8,4.8,0,0,1,2.537,1.5,4.628,4.628,0,0,1,.726,1.9,15.388,15.388,0,0,1-1.105,9.256,1.224,1.224,0,0,0-.15.986,1.743,1.743,0,0,0,.519.519,1.806,1.806,0,0,1-.109,2.693c-.244.176-.566.332-.612.628s.254.581.519.809a2.9,2.9,0,0,1,.809,2.667,5.848,5.848,0,0,0-.265,1.178,3.836,3.836,0,0,0,.426,1.406,6.107,6.107,0,0,1,.394,3.113,2.241,2.241,0,0,0,.545,2.433c.939,1.266,1.141,3.383-.218,4.182a3.139,3.139,0,0,1,1.676,3.243c.815-.431,1.8.125,2.48.747s1.37,1.391,2.288,1.437c.643.031,1.318-.3,1.9-.036.892.4.861,1.847,1.738,2.283.768.379,1.842-.244,2.5.311.228.192.342.488.565.69.493.457,1.271.265,1.946.233a4.633,4.633,0,0,1,3.886,2.376,11.674,11.674,0,0,1,1.333,4.55,6.188,6.188,0,0,1-.052,2.594,2.246,2.246,0,0,1-1.842,1.66c-8.016.519-15.929-1.406-23.737-3.305A18.417,18.417,0,0,1,448.419,582a19.857,19.857,0,0,1-4.26-4.779,62.061,62.061,0,0,1-6.257-10.055c-2.117-4.628-3.061-9.692-3.985-14.694a13.7,13.7,0,0,1-.337-4.1,11.616,11.616,0,0,1,1.759-4.5,47.6,47.6,0,0,1,3.632-5.147A13.5,13.5,0,0,1,447.153,533.807Z" transform="translate(-271.709 -305.202)" fill="#3f3d56"/>
      <path id="Path_21" data-name="Path 21" d="M1025.965,338.329a10.434,10.434,0,1,0-5.225-20.157A30.342,30.342,0,0,1,1025.965,338.329Z" transform="translate(-554.237 -201.295)" fill="rgba(255,101,132,0.49)"/>
      <path id="Path_22" data-name="Path 22" d="M1057.155,330.2a10.434,10.434,0,1,0-5.225-20.157A30.342,30.342,0,0,1,1057.155,330.2Z" transform="translate(-569.244 -197.383)" fill="rgba(255,101,132,0.49)"/>
      <path id="Path_23" data-name="Path 23" d="M995.85,326.692a10.434,10.434,0,0,1-5.225-20.157,30.28,30.28,0,0,0-32.475-12.115,83.124,83.124,0,0,1,16.136,58.365,30.28,30.28,0,0,0,21.563-26.093Z" transform="translate(-524.122 -189.658)" fill="rgba(255,101,132,0.49)"/>
      <path id="Path_24" data-name="Path 24" d="M649.271,374.13a30.3,30.3,0,0,0-23.431,24.018,10.434,10.434,0,0,1,3.352,20.386,30.254,30.254,0,0,0,35.915,13.952,83.146,83.146,0,0,1-15.835-58.355Z" transform="translate(-364.231 -228.473)" fill="rgba(255,101,132,0.49)"/>
      <path id="Path_25" data-name="Path 25" d="M616.353,420.42a10.439,10.439,0,1,0,3.352,20.386,30.373,30.373,0,0,1-3.352-20.386Z" transform="translate(-354.733 -250.746)" fill="rgba(255,101,132,0.49)"/>
      <path id="Path_26" data-name="Path 26" d="M579.563,429.12a10.439,10.439,0,1,0,3.352,20.386A30.41,30.41,0,0,1,579.563,429.12Z" transform="translate(-337.031 -254.932)" fill="rgba(255,101,132,0.49)"/>
      <path id="Path_27" data-name="Path 27" d="M881.5,246,864.68,266.6a29.409,29.409,0,0,1,2.122,3.964l18.513-22.679C884.044,247.2,882.783,246.566,881.5,246Z" transform="translate(-479.149 -166.824)" fill="#f1f1f1"/>
      <path id="Path_28" data-name="Path 28" d="M836.124,323.074a30.279,30.279,0,1,1-16.137-58.368A83.658,83.658,0,0,0,795.2,242.689l4.555,3.72L776.2,275.267a30.28,30.28,0,1,1-37.751-28.661l-1.894-1.557,10.9-13.34A83.016,83.016,0,0,0,671,305.6a30.275,30.275,0,0,1,15.846,58.355,83.016,83.016,0,0,0,149.278-40.885Zm-89.891,54.889a30.285,30.285,0,1,1,42.608-4.317A30.285,30.285,0,0,1,746.233,377.963Z" transform="translate(-385.959 -159.948)" fill="rgba(255,101,132,0.49)"/>
      <path id="Path_29" data-name="Path 29" d="M835.926,232.189q-2.465-.327-4.95-.519L819.52,245.71a29.862,29.862,0,0,1,4.773.711Z" transform="translate(-457.42 -159.929)" fill="#f1f1f1"/>
      <path id="Path_30" data-name="Path 30" d="M849.473,254.977,863.414,237.9q-2.148-.7-4.317-1.276L846.09,252.554a30.908,30.908,0,0,1,3.238,2.3Z" transform="translate(-470.204 -162.31)" fill="#f1f1f1"/>
    </g>
  </g>
</svg>
