<svg xmlns="http://www.w3.org/2000/svg" width="406" height="243.65" viewBox="0 0 406 243.65">
  <g id="undraw_sunlight_tn7t" transform="translate(0 0)">
    <path id="Path_200" data-name="Path 200" d="M1054.524,309.078h0c-7.764,0-14.058,5.731-14.058,12.8v8.982h3.367l1.949-3.328-.487,3.328h21.641l1.772-3.025-.443,3.025h2.437v-7.053C1070.7,315.673,1063.458,309.078,1054.524,309.078Z" transform="translate(-682.174 -228.021)" fill="#2f2e41"/>
    <path id="Path_201" data-name="Path 201" d="M1038.592,449.858l-2.335,7.344,21.793-.639-.389-6.067S1041.317,446.984,1038.592,449.858Z" transform="translate(-679.449 -327.273)" fill="#ffb9b9"/>
    <path id="Path_202" data-name="Path 202" d="M959.06,518.245l7,12.772,6.616-6.705-5.448-8.941Z" transform="translate(-620.93 -366.283)" fill="#ffb9b9"/>
    <path id="Path_203" data-name="Path 203" d="M1008.73,687.562l.779,14.688h8.56l-1.167-14.688Z" transform="translate(-653.089 -488.662)" fill="#ffb9b9"/>
    <path id="Path_204" data-name="Path 204" d="M1004.25,497.626l3.892,10.537,5.837,51.089s5.448,1.277,9.34-.319l.779-7.025,1.557-40.233s7.394-3.193,6.616-7.663a97.64,97.64,0,0,0-2.724-10.537Z" transform="translate(-658.727 -359.075)" fill="#2f2e41"/>
    <path id="Path_205" data-name="Path 205" d="M1002.3,754.175h-2.335s-6.616,5.747-8.951,6.386-14.4,6.067-4.67,7.025,15.955-3.193,15.955-3.193a10.6,10.6,0,0,0,7.394.319c4.281-1.277,1.946-5.109,1.946-5.109s-2.173-5.84-2.254-5.794S1006.973,756.73,1002.3,754.175Z" transform="translate(-644.716 -544.1)" fill="#2f2e41"/>
    <ellipse id="Ellipse_9" data-name="Ellipse 9" cx="8.951" cy="7.344" rx="8.951" ry="7.344" transform="translate(360.702 86.184)" fill="#ffb9b9"/>
    <path id="Path_206" data-name="Path 206" d="M1073.049,368.044l-4.117,2.816-.553.377-.389,3.832h-15.177s2.07-1.472,3.993-3c.039-.035.082-.073.129-.109.261-.208.494-.4.7-.572.113-.1.222-.185.319-.268.16-.137.315-.268.471-.4a.01.01,0,0,0,0-.006,13.5,13.5,0,0,0,1.121-1.079l0,0a3.8,3.8,0,0,0,.261-.316c1.167-1.6-1.557-4.79-1.557-4.79l8.562-3.512c.3,3.461,3.868,5.773,5.464,6.642C1072.756,367.914,1073.049,368.044,1073.049,368.044Z" transform="translate(-690.168 -264.937)" fill="#ffb9b9"/>
    <path id="Path_207" data-name="Path 207" d="M1116.937,438.814c-5.837,1.277-6.226-8.3-6.226-8.3l-7.967-13.074a26.562,26.562,0,0,1-3.432-8.771l-1.832-9.447-.556.546v0l-1,.409-6.078-7.983-1.7-2.235v-2.554l5.838-2.235h2.335s.051-.006.14-.013c1.074-.093,8.063-.476,8.421,5.122a47.482,47.482,0,0,1,.056,5.445,34.91,34.91,0,0,0,1.357,11.754,12.784,12.784,0,0,0,1.311,3.237c1.557,2.235,7,19.8,7,19.8S1122.775,437.536,1116.937,438.814Z" transform="translate(-713.039 -282.062)" fill="#ffb9b9"/>
    <path id="Path_208" data-name="Path 208" d="M1017.5,363.536l-1.475,2.206-.872,1.306-4.267,6.386s-1.21.811-3.172,1.858c-3.261,1.74-8.608,4.129-13.951,4.528-8.561.639-.389-22.032-.389-22.032s2.724-8.941,6.616-7.983.778,4.151-1.946,10.218-.39,12.772-.39,12.772a111.93,111.93,0,0,0,12.453-7.344,9.759,9.759,0,0,1,5.464-2.162h0a6.013,6.013,0,0,1,1.3.083A3.425,3.425,0,0,1,1017.5,363.536Z" transform="translate(-649.408 -256.916)" fill="#ffb9b9"/>
    <path id="Path_209" data-name="Path 209" d="M1069.01,390.822a8.733,8.733,0,0,1-1.6,1.485A16.843,16.843,0,0,0,1069.01,390.822Z" transform="translate(-699.621 -286.118)" fill="#d0cde1"/>
    <path id="Path_210" data-name="Path 210" d="M1065.135,398.571l-.362.39-5.67,8.072a92.167,92.167,0,0,0-12.842-2.874,8.357,8.357,0,0,0-7.779,2.864l1.553-5.1-.837-2.293c-.1-.268-.21-.565-.331-.9-1.168-3.193,3.113-6.705,3.113-6.705l5.075-4.4h0a6.016,6.016,0,0,1,1.3.083c-.21.172-.444.364-.7.572-.047.035-.09.073-.129.109-1.491,1.248-.716,1.6-.019,1.689a4.167,4.167,0,0,0,.7.029c1.623.192,5.176-.977,7.783-1.954,1.775-.664,3.113-1.239,3.113-1.239l3.4-2.554.51-.383c.467.252.763.383.763.383h.389s.05-.006.14-.013l-1.772,1.079a5.091,5.091,0,0,0-2.649,4.681h0Z" transform="translate(-680.889 -281.254)" fill="#d0cde1"/>
    <path id="Path_211" data-name="Path 211" d="M976.925,458.19l-5.689,1.823s-30.891-9.806-35.561-1.823,16.345,27.141,16.345,27.141l9.34-3.512-3.892-9.579s22.571,15.646,31.911,7.025,3.113-20.812,3.113-20.812S986.656,454.678,976.925,458.19Z" transform="translate(-613.89 -331.773)" fill="#2f2e41"/>
    <path id="Path_212" data-name="Path 212" d="M1001.128,573.117l-3.5,2.235s3.113,10.218,1.946,11.814-3.5,6.067.778,5.747,8.951-5.747,9.34-7.663,3.114-7.663,3.114-7.663,4.67-8.941,1.167-9.26-9.081-.533-9.081-.533Z" transform="translate(-654.438 -411.896)" fill="#2f2e41"/>
    <path id="Path_213" data-name="Path 213" d="M1062.786,315.284a7.989,7.989,0,0,0-5.818-2.436h-.276c-5.321,0-9.635,3.951-9.635,8.825h1.783l.288-1.8.422,1.8h10.577l.886-1.522-.222,1.522h2.081q1.456,5.934-4.185,11.868h3.544L1064,330.5l-.443,3.043h6.756l1.329-7A12.015,12.015,0,0,0,1062.786,315.284Z" transform="translate(-686.442 -230.701)" fill="#2f2e41"/>
    <ellipse id="Ellipse_10" data-name="Ellipse 10" cx="32.083" cy="26.325" rx="32.083" ry="26.325" transform="translate(310.268 6.535)" fill="#ff6584"/>
    <path id="Path_214" data-name="Path 214" d="M768.584,567.032c-.593,3.874-1.078,7.6-1.476,11.158H780q.7-5.607,1.765-11.158Z" transform="translate(-505.192 -411.354)" fill="#3f3d56"/>
    <path id="Path_215" data-name="Path 215" d="M776.016,675.8q-.415-5.551-.335-11.158H762.614c-.212,4.275-.3,8.028-.31,11.158Z" transform="translate(-502.081 -480.725)" fill="#3f3d56"/>
    <path id="Path_216" data-name="Path 216" d="M834.581,251.931a311.834,311.834,0,0,1,21.272-39.281L844.891,207.3a188.733,188.733,0,0,0-26.556,44.632Z" transform="translate(-538.359 -155.685)" fill="#3f3d56"/>
    <path id="Path_217" data-name="Path 217" d="M764.551,615.836c-.4,3.978-.7,7.714-.9,11.158h12.972q.187-5.579.794-11.158Z" transform="translate(-502.951 -446.039)" fill="#3f3d56"/>
    <path id="Path_218" data-name="Path 218" d="M774.7,518.228c-.792,3.818-1.478,7.545-2.071,11.158H785.92q1.158-5.637,2.613-11.158Z" transform="translate(-508.765 -376.668)" fill="#3f3d56"/>
    <path id="Path_219" data-name="Path 219" d="M807.067,371.816q-2.294,5.6-4.224,11.158h15.65c1.547-3.863,3.132-7.591,4.721-11.158Z" transform="translate(-528.328 -272.61)" fill="#3f3d56"/>
    <path id="Path_220" data-name="Path 220" d="M783,469.424q-1.514,5.672-2.71,11.158h14q1.568-5.673,3.374-11.158Z" transform="translate(-513.729 -341.982)" fill="#3f3d56"/>
    <path id="Path_221" data-name="Path 221" d="M762.318,713.444c.043,4.808.236,7.515.236,7.515l-.139,2.163h15.264q-.916-4.8-1.4-9.678Z" transform="translate(-502.091 -515.411)" fill="#3f3d56"/>
    <path id="Path_222" data-name="Path 222" d="M793.7,420.62q-1.878,5.631-3.419,11.158h14.843q1.95-5.722,4.069-11.158Z" transform="translate(-520.194 -307.296)" fill="#3f3d56"/>
    <path id="Path_223" data-name="Path 223" d="M846.1,96.075a97.567,97.567,0,0,0-16.225-21.39l-2.782,3.507.237-5.825a53.328,53.328,0,0,0-5.873-4.42l-3.8,4.793.278-6.853a38.544,38.544,0,0,0-7.222-2.925L807.9,66.505l.17-4.2a34.069,34.069,0,0,0-22.289,3.075l-2.773-.339,4.756-1.63a24.856,24.856,0,0,0-2.2-6.356l-8.265-1.012,6.432-2.2a45.557,45.557,0,0,0-4.239-5.537l-7.026-.86,4.706-1.612c-5.179-5.223-12.524-10.888-22.715-16.953,0,0-.754,5.4-1.174,12.936l6.9,5.793-7.09-1.5c-.074,2.314-.106,4.749-.071,7.234l5.09,4.272L753.1,56.547c.073,1.9.191,3.81.363,5.7a33.247,33.247,0,0,0-13.181.062l.17,4.2-2.812-3.544a38.541,38.541,0,0,0-7.222,2.925l.278,6.853-3.8-4.793a53.351,53.351,0,0,0-5.873,4.42l.237,5.825-2.782-3.507a97.57,97.57,0,0,0-16.225,21.39s6.613-.366,15.719-1.387l5.7-6.615-.524,5.994c2.787-.358,5.712-.771,8.685-1.248l4.2-4.878-.37,4.232c4.146-.735,8.3-1.6,12.233-2.6l2.821,2.153-5.046-.863a25.316,25.316,0,0,0-2.564,6.264l6.119,4.67L742.4,100.63a37.61,37.61,0,0,0-.321,6.534l5.2,3.97-4.992-.854c.67,6.711,2.823,14.791,7.045,24.523,0,0,4.346-4.106,9.885-10.123l-1.7-7.98,4.81,4.531c1.656-1.873,3.361-3.867,5.046-5.933l-1.252-5.885,3.4,3.2a97.781,97.781,0,0,0,8.95-13.318,121.029,121.029,0,0,0,9.745,9.32l2.6-3.667.12,5.973c2.128,1.769,4.26,3.464,6.316,5.048l3.685-5.193.162,8.1c6.82,5.055,12.03,8.416,12.03,8.416,1.915-10.209,2.177-18.478,1.3-25.172l-4.707,1.61,4.2-4.7a38.991,38.991,0,0,0-1.814-6.367l-6.433,2.2,3.059-3.426q1.971.39,3.955.741l-.37-4.232,4.2,4.878c2.973.477,5.9.89,8.685,1.248l-.524-5.994,5.7,6.615C839.486,95.709,846.1,96.075,846.1,96.075Z" transform="translate(-463.202 -28.879)" fill="#c7d8d9"/>
    <path id="Path_224" data-name="Path 224" d="M689.434,543.343c.418,2.734.761,5.367,1.042,7.876h-9.1q-.5-3.957-1.246-7.876Z" transform="translate(-448.881 -394.517)" fill="#3f3d56"/>
    <path id="Path_225" data-name="Path 225" d="M685.409,620.119q.293-3.919.237-7.876h9.224c.15,3.018.208,5.667.219,7.876Z" transform="translate(-452.297 -443.485)" fill="#3f3d56"/>
    <path id="Path_226" data-name="Path 226" d="M613.21,320.918a220.091,220.091,0,0,0-15.016-27.727l7.738-3.777a133.224,133.224,0,0,1,18.745,31.5Z" transform="translate(-395.832 -214.046)" fill="#3f3d56"/>
    <path id="Path_227" data-name="Path 227" d="M693.432,577.793c.284,2.808.491,5.445.638,7.876h-9.157q-.132-3.938-.56-7.876Z" transform="translate(-451.614 -419.002)" fill="#3f3d56"/>
    <path id="Path_228" data-name="Path 228" d="M683.5,508.893c.559,2.695,1.044,5.326,1.462,7.876h-9.383q-.817-3.979-1.844-7.876Z" transform="translate(-444.735 -370.033)" fill="#3f3d56"/>
    <path id="Path_229" data-name="Path 229" d="M654.858,405.543q1.619,3.951,2.982,7.876H646.793c-1.092-2.727-2.211-5.358-3.333-7.876Z" transform="translate(-425.138 -296.581)" fill="#3f3d56"/>
    <path id="Path_230" data-name="Path 230" d="M675.729,474.443q1.069,4,1.913,7.876H667.76q-1.107-4-2.381-7.876Z" transform="translate(-439.329 -345.549)" fill="#3f3d56"/>
    <path id="Path_231" data-name="Path 231" d="M692.94,646.693c-.03,3.394-.167,5.3-.167,5.3l.1,1.527H682.1q.647-3.386.986-6.831Z" transform="translate(-450.153 -467.97)" fill="#3f3d56"/>
    <path id="Path_232" data-name="Path 232" d="M666.187,439.993q1.326,3.975,2.414,7.876H658.123q-1.376-4.039-2.872-7.876Z" transform="translate(-432.772 -321.065)" fill="#3f3d56"/>
    <path id="Path_233" data-name="Path 233" d="M467.252,210.9A68.877,68.877,0,0,1,478.7,195.8l1.964,2.476-.167-4.112a37.646,37.646,0,0,1,4.146-3.12l2.684,3.383-.2-4.838a27.21,27.21,0,0,1,5.1-2.065l1.985,2.5-.12-2.963a24.049,24.049,0,0,1,15.734,2.17l1.958-.24-3.357-1.15a17.548,17.548,0,0,1,1.556-4.487l5.834-.714-4.539-1.555a32.167,32.167,0,0,1,2.992-3.909l4.959-.607-3.322-1.138a80.544,80.544,0,0,1,16.034-11.967s.532,3.814.829,9.131L527.9,176.69l5-1.062c.052,1.633.075,3.352.05,5.107l-3.593,3.016L532.9,183c-.051,1.341-.135,2.69-.256,4.023a23.468,23.468,0,0,1,9.3.044l-.12,2.963,1.985-2.5a27.206,27.206,0,0,1,5.1,2.065l-.2,4.838,2.684-3.383a37.652,37.652,0,0,1,4.146,3.12l-.167,4.112,1.964-2.475a68.873,68.873,0,0,1,11.453,15.1s-4.668-.259-11.1-.979l-4.023-4.669.37,4.231c-1.967-.252-4.032-.544-6.131-.881l-2.967-3.444.261,2.987c-2.927-.519-5.862-1.127-8.635-1.836l-1.991,1.52,3.562-.609a17.873,17.873,0,0,1,1.81,4.422l-4.319,3.3,4.816-.824a26.564,26.564,0,0,1,.227,4.612l-3.672,2.8,3.524-.6a58.945,58.945,0,0,1-4.973,17.31s-3.068-2.9-6.978-7.146l1.2-5.633-3.4,3.2c-1.169-1.322-2.373-2.73-3.562-4.188l.884-4.154-2.4,2.259a69.048,69.048,0,0,1-6.318-9.4,85.45,85.45,0,0,1-6.879,6.579l-1.837-2.588-.084,4.217c-1.5,1.248-3.007,2.445-4.458,3.563l-2.6-3.666L499.013,227c-4.814,3.568-8.492,5.941-8.492,5.941a56.916,56.916,0,0,1-.915-17.769l3.323,1.136-2.963-3.319a27.539,27.539,0,0,1,1.281-4.495l4.541,1.553-2.159-2.419q-1.392.275-2.791.523l.261-2.987-2.967,3.444c-2.1.336-4.164.628-6.131.881l.37-4.231-4.023,4.669C471.92,210.644,467.252,210.9,467.252,210.9Z" transform="translate(-311.054 -124.535)" fill="#c7d8d9"/>
    <ellipse id="Ellipse_11" data-name="Ellipse 11" cx="52.003" cy="4.05" rx="52.003" ry="4.05" transform="translate(81.807 204.405)" fill="#3f3d56"/>
    <ellipse id="Ellipse_12" data-name="Ellipse 12" cx="52.003" cy="4.05" rx="52.003" ry="4.05" transform="translate(206.967 204.405)" fill="#3f3d56"/>
    <path id="Path_234" data-name="Path 234" d="M705.778,540.521s3.755,21.392-14.272,34.04c-11.666,8.184-28.3,9.523-41.951,3.764a51.965,51.965,0,0,1-15.643-10.29,57.778,57.778,0,0,1-5.38-5.872,67.5,67.5,0,0,1-6.251-9.364q-1.692-3.033-3.233-6.491c-.2-.443-.381-.877-.557-1.308-9.36-22.827,8.846-29.487,25.557-31.083a104.463,104.463,0,0,1,10.563-.437A115.109,115.109,0,0,1,667,514.2s.342,0,.959.023a90.08,90.08,0,0,1,9.495.865C690.36,516.945,710.121,522.707,705.778,540.521Z" transform="translate(-407.321 -373.289)" fill="#c7d8d9"/>
    <path id="Path_235" data-name="Path 235" d="M384.359,546.316c-8.229,18.534-20.079,27.618-30.507,32.018-13.651,5.76-30.285,4.42-41.952-3.764a34.727,34.727,0,0,1-3.173-2.508,32.62,32.62,0,0,1-5.292-5.977,33.718,33.718,0,0,1-4.262-8.7,38.985,38.985,0,0,1-1.823-10.191,33.51,33.51,0,0,1,.278-6.659c-4.065-16.677,12.992-22.79,25.779-25.029a91.667,91.667,0,0,1,11.222-1.241c1.132-.052,1.78-.055,1.78-.055a118.474,118.474,0,0,1,20.3-.495C374.368,514.88,395.518,521.186,384.359,546.316Z" transform="translate(-200.838 -373.299)" fill="#c7d8d9"/>
    <path id="Path_236" data-name="Path 236" d="M335.242,516.16l-35.457,43.12a38.988,38.988,0,0,1-1.823-10.191L324.02,517.4A91.679,91.679,0,0,1,335.242,516.16Z" transform="translate(-201.45 -375.198)" fill="#fff" opacity="0.2"/>
    <path id="Path_237" data-name="Path 237" d="M368.494,513.7l-47.98,58.351a32.62,32.62,0,0,1-5.292-5.977l43.224-52.566Q363.473,513.381,368.494,513.7Z" transform="translate(-212.625 -373.288)" fill="#fff" opacity="0.2"/>
    <path id="Path_238" data-name="Path 238" d="M659.292,513.479,626.962,552.8q-1.692-3.033-3.233-6.492c-.2-.443-.381-.877-.557-1.307l25.557-31.083A104.481,104.481,0,0,1,659.292,513.479Z" transform="translate(-412.003 -373.289)" fill="#fff" opacity="0.2"/>
    <path id="Path_239" data-name="Path 239" d="M700.57,516.915l-43.538,52.95a57.764,57.764,0,0,1-5.38-5.872l39.424-47.943A90.081,90.081,0,0,1,700.57,516.915Z" transform="translate(-430.442 -375.12)" fill="#fff" opacity="0.2"/>
    <path id="Path_240" data-name="Path 240" d="M493.989,538.508H485.92c3.571-24.022-39.174-24.3-39.174-24.3a118.643,118.643,0,0,0-20.449-.483v-.1H342.739v.072a118.768,118.768,0,0,0-20.1.507s-42.746.278-39.174,24.3h-7.717v6.364h7.787c-.078,6.914,1.595,20.581,14.594,29.7,11.666,8.184,28.3,9.523,41.952,3.764,10.429-4.4,22.279-13.483,30.507-32.018,2.819-6.35,3.575-11.5,2.846-15.664q11.249-.464,22.513,0c-.729,4.167.027,9.314,2.846,15.664,8.229,18.534,20.078,27.618,30.507,32.018,13.651,5.76,30.285,4.42,41.952-3.764,13-9.12,14.672-22.786,14.594-29.7h8.14Zm-127.113,7.929c-7.83,17.638-19.253,25.888-29.051,29.695-11.92,4.631-26.125,3.344-36.356-3.48-12.368-8.25-14.014-20.93-13.969-27.392.021-2.569-.12-5.132-.243-7.7-.977-20.166,35.9-20.4,35.9-20.4S383.273,509.511,366.876,546.438Zm29.4-17.231a182.359,182.359,0,0,0-23.163,0c-1.934-7.083-8.454-11.076-16.2-13.262h55.554c-7.742,2.186-14.261,6.178-16.2,13.262Zm86.237,8.264c-.127,2.589-.268,5.178-.247,7.767.049,6.523-1.615,19.321-14.1,27.644-10.323,6.888-24.651,8.19-36.677,3.521-9.893-3.839-21.429-12.164-29.337-29.975-16.546-37.268,44.123-29.547,44.123-29.547S483.5,517.116,482.513,537.47Z" transform="translate(-187.07 -373.302)" fill="#3f3d56"/>
    <path id="Path_241" data-name="Path 241" d="M425.548,652.269a8.885,8.885,0,0,1-1.308-4.022c-.3-2.457-.107-6.6,2.511-12.377a21.05,21.05,0,0,0-1.205-19.865l.3-.143a19.49,19.49,0,0,1,2.521,5.859,21.258,21.258,0,0,1-1.29,14.248c-4.951,10.927-1.27,16.1-1.233,16.15Z" transform="translate(-283.139 -446.059)" fill="#3f3d56"/>
    <ellipse id="Ellipse_13" data-name="Ellipse 13" cx="2.262" cy="1.856" rx="2.262" ry="1.856" transform="translate(138.208 165.593)" fill="#3f3d56"/>
    <ellipse id="Ellipse_14" data-name="Ellipse 14" cx="2.262" cy="1.856" rx="2.262" ry="1.856" transform="translate(145.342 172.445)" fill="#3f3d56"/>
    <ellipse id="Ellipse_15" data-name="Ellipse 15" cx="2.262" cy="1.856" rx="2.262" ry="1.856" transform="translate(140.47 177.014)" fill="#fff"/>
    <ellipse id="Ellipse_16" data-name="Ellipse 16" cx="2.262" cy="1.856" rx="2.262" ry="1.856" transform="translate(146.385 180.868)" fill="#fff"/>
    <ellipse id="Ellipse_17" data-name="Ellipse 17" cx="2.262" cy="1.856" rx="2.262" ry="1.856" transform="translate(138.73 186.864)" fill="#3f3d56"/>
    <path id="Path_242" data-name="Path 242" d="M431.354,722.308s-2.262-4.568,4.524-7.994Z" transform="translate(-287.579 -516.029)" fill="#3f3d56"/>
    <path id="Path_243" data-name="Path 243" d="M407.608,729.829s-1.029-4.858-9-4.816Z" transform="translate(-266.614 -523.633)" fill="#3f3d56"/>
    <path id="Path_244" data-name="Path 244" d="M291.938,356.022a1.783,1.783,0,0,1-1,1.507l-.085.043H253.2l.152-.379c.025-.067,2.782-6.63,14.984-5.363,1.149-.324,12.382-3.333,19.105.049C290.426,353.378,291.938,354.773,291.938,356.022Z" transform="translate(-172.471 -257.31)" fill="#f1f1f1"/>
    <path id="Path_245" data-name="Path 245" d="M489.938,433.022a1.784,1.784,0,0,1-1,1.507l-.085.043H451.2l.152-.379c.025-.066,2.782-6.63,14.984-5.363,1.149-.324,12.382-3.333,19.105.049C488.426,430.378,489.938,431.773,489.938,433.022Z" transform="translate(-300.663 -312.035)" fill="#f1f1f1"/>
    <path id="Path_246" data-name="Path 246" d="M534.938,123.022a1.783,1.783,0,0,1-1,1.507l-.085.043H496.2l.152-.379c.025-.067,2.782-6.63,14.984-5.363,1.149-.324,12.382-3.333,19.105.049C533.426,120.378,534.938,121.773,534.938,123.022Z" transform="translate(-329.798 -91.713)" fill="#f1f1f1"/>
    <path id="Path_247" data-name="Path 247" d="M34.428,652.883l3.221,8.181A35.172,35.172,0,0,0,36.116,677.3c1.381,8.559.614,8.811.614,8.811s-13.794-.652-12.414,2.747,14.868,1.407,14.868,1.407,2.59-.572,3.818-6.614,4.313-17.678,4.313-17.678l-2.9-10.986Z" transform="translate(-24.218 -472.369)" fill="#ffb8b8"/>
    <path id="Path_248" data-name="Path 248" d="M45.519,595.015s-5.829,1.762-5.829,6.545,2.148,11.328,3.528,11.706S53.8,618.8,55.49,615.154,45.519,595.015,45.519,595.015Z" transform="translate(-34.235 -431.242)" fill="#d0cde1"/>
    <path id="Path_249" data-name="Path 249" d="M163.325,758.221l12.272-.378,9.358-1.133-2.761,7.552-22.7.5Z" transform="translate(-103.26 -537.807)" fill="#ffb8b8"/>
    <path id="Path_250" data-name="Path 250" d="M240.539,780.994s-.153-2.769-1.534-2.643-.46-1.007.767-1.259,4.755-1.51,4.755-1.51l13.959.755s9.051,6.545,5.369,10.07-13.192.378-13.192.378l-10.278.126S237.011,782.379,240.539,780.994Z" transform="translate(-162.832 -559.573)" fill="#2f2e41"/>
    <path id="Path_251" data-name="Path 251" d="M236.068,711.809l4.448,17.118,9.2-1.51-5.216-21.4-5.523-2.391Z" transform="translate(-152.839 -500.081)" fill="#ffb8b8"/>
    <path id="Path_252" data-name="Path 252" d="M77.922,667.793s-25.771,9.566-14.88,19.258c0,0,0,4.531,11.505,3.65s33.748-2.517,34.822-2.014,4.449-9.944,1.534-10.447-6.443-1.133-6.443-1.133,3.068-.378,3.068-2.517c0,0,8.744-.5,11.352-5.035s5.062-7.93,5.062-7.93l5.983,12.587s6.9-10.447,12.119-5.79c0,0-5.829-30.082-10.278-32.851s-7.517-3.65-11.658-1.133-7.977,8.937-7.977,8.937Z" transform="translate(-47.616 -458.204)" fill="#2f2e41"/>
    <path id="Path_253" data-name="Path 253" d="M266.382,801.8a33.785,33.785,0,0,0-3.068,2.14c-1.227,1.007-2.915.5-3.068,0s-2.915.378-3.221,4.028-2.148,6.923,2.761,8.056,4.755,4.405,4.755,4.405a19.888,19.888,0,0,0,12.425.629c6.9-1.888,4.449-3.9,4.449-3.9l-9.2-12.461S269.757,800.915,266.382,801.8Z" transform="translate(-174.562 -578.109)" fill="#2f2e41"/>
    <path id="Path_254" data-name="Path 254" d="M202.565,586.313s14.726,4.154,16.26,5.035,8.437,5.035,5.062,7.174-6.136,3.524-12.732,1.888-13.96-6.671-13.96-6.671Z" transform="translate(-136.21 -425.057)" fill="#ffb8b8"/>
    <path id="Path_255" data-name="Path 255" d="M170.655,566.664s5.829-.881,9.971,1.007a28.456,28.456,0,0,1,7.67,5.664s-3.835,6.671-6.6,7.678-7.823-4.028-7.823-4.028Z" transform="translate(-119.027 -410.947)" fill="#d0cde1"/>
    <path id="Path_256" data-name="Path 256" d="M93.606,553.074s.153,4.909-.46,5.412,7.363,15.356,16.107,8.811,1.994-9.188,1.994-9.188-3.221-4.909-3.068-5.412-14.266,0-14.266,0Z" transform="translate(-68.823 -401.006)" fill="#ffb8b8"/>
    <path id="Path_257" data-name="Path 257" d="M93.606,553.074s.153,4.909-.46,5.412,7.363,15.356,16.107,8.811,1.994-9.188,1.994-9.188-3.221-4.909-3.068-5.412-14.266,0-14.266,0Z" transform="translate(-68.823 -401.006)" opacity="0.1"/>
    <path id="Path_258" data-name="Path 258" d="M97.53,582.849s5.829,3.273,8.284,2.517,5.522-4.028,5.829-4.279S127.6,606.638,127.6,606.638s-2.3,9.44-8.437,12.209-6.059,4.972-6.826,6.86-10.661-5.979-10.661-5.979l-6.289-21.9V584.486Z" transform="translate(-70.293 -421.341)" fill="#d0cde1"/>
    <path id="Path_259" data-name="Path 259" d="M67.08,566.875a5.775,5.775,0,0,0-3.912,1.07c-1.994,1.385-11.352,6.545-10.891,7.049A66.5,66.5,0,0,1,57.8,585.567c.92,2.895,2.3,3.273,2.3,3.273s3.221,1.888,2.761,3.273-2.454,20.265.307,24.418,2.3,7.8,1.534,8.811,7.363-2.895,7.363-2.895S84.185,614.39,85.1,612a23.758,23.758,0,0,0,1.227-5.035s-7.823-25.425-10.278-26.81S67.08,566.875,67.08,566.875Z" transform="translate(-42.374 -411.221)" fill="#575a89"/>
    <path id="Path_260" data-name="Path 260" d="M137.307,563.6s3.78-1.925,4.547-1.421,7.977.5,8.13,1.007.46,12.587,5.676,15.733,1.841,9.44,1.841,9.44l3.835,5.035s-20.862,16.487-19.482,10.825c.077-.315,0-.378,0-.378s-8.13-28.572-7.056-30.082S137.822,565.4,137.307,563.6Z" transform="translate(-95.748 -407.843)" fill="#575a89"/>
    <path id="Path_261" data-name="Path 261" d="M162.259,607.2,141.4,613.114s-20.709,4.028-17.488,8.685,16.874-3.273,16.874-3.273l27.782-2.554S179.593,608.331,162.259,607.2Z" transform="translate(-88.541 -439.9)" fill="#ffb8b8"/>
    <ellipse id="Ellipse_18" data-name="Ellipse 18" cx="11.352" cy="9.314" rx="11.352" ry="9.314" transform="translate(21.715 138.096)" fill="#ffb8b8"/>
    <path id="Path_262" data-name="Path 262" d="M84.893,492.794l-2.1-.627a16.623,16.623,0,0,1,10.5-3.289l-1.718-1.41a9.03,9.03,0,0,1,8.017,2.036,29.617,29.617,0,0,1,5.777,6.051h2.249l-.939,1.54,3.285,1.54-3.372-.277a6.448,6.448,0,0,1-.319,3.989l-.764,1.723s-3.054-5.012-3.054-5.639V500s-2.1-1.41-2.1-2.349l-1.145,1.1-.573-1.723-7.063,1.723,1.145-1.41-4.391.47,1.718-1.723s-4.963,2.036-5.154,3.759-2.672,3.916-2.672,3.916l-1.145-1.566S79.357,495.143,84.893,492.794Z" transform="translate(-60.866 -354.64)" fill="#2f2e41"/>
    <path id="Path_263" data-name="Path 263" d="M130.226,533.6a3.58,3.58,0,0,1-1.418,3.382,4.438,4.438,0,0,1-4.168.374,5.147,5.147,0,0,1-1.554-1.022,5.732,5.732,0,0,1-.534-.583,6.7,6.7,0,0,1-.621-.93q-.168-.3-.321-.645c-.02-.044-.038-.087-.055-.13-.93-2.268.879-2.929,2.539-3.088a10.413,10.413,0,0,1,1.049-.043,11.445,11.445,0,0,1,1.23.071l.1,0a8.94,8.94,0,0,1,.943.086C128.694,531.255,130.658,531.828,130.226,533.6Z" transform="translate(-87.073 -385.681)" fill="#c7d8d9"/>
    <path id="Path_264" data-name="Path 264" d="M98.293,534.173a5.806,5.806,0,0,1-3.031,3.181,4.439,4.439,0,0,1-4.168-.374,3.465,3.465,0,0,1-.315-.249,3.24,3.24,0,0,1-.526-.594,3.349,3.349,0,0,1-.423-.865,3.872,3.872,0,0,1-.181-1.012,3.33,3.33,0,0,1,.028-.662c-.4-1.657,1.291-2.264,2.561-2.487a9.087,9.087,0,0,1,1.115-.123c.112-.005.177-.005.177-.005a11.771,11.771,0,0,1,2.016-.049C97.3,531.05,99.4,531.676,98.293,534.173Z" transform="translate(-66.559 -385.682)" fill="#c7d8d9"/>
    <path id="Path_265" data-name="Path 265" d="M93.414,531.177l-3.523,4.284a3.874,3.874,0,0,1-.181-1.012L92.3,531.3A9.108,9.108,0,0,1,93.414,531.177Z" transform="translate(-66.62 -385.871)" fill="#fff" opacity="0.2"/>
    <path id="Path_266" data-name="Path 266" d="M96.718,530.932l-4.767,5.8a3.239,3.239,0,0,1-.526-.594l4.294-5.222Q96.219,530.9,96.718,530.932Z" transform="translate(-67.73 -385.681)" fill="#fff" opacity="0.2"/>
    <path id="Path_267" data-name="Path 267" d="M125.607,530.911l-3.212,3.906q-.168-.3-.321-.645c-.02-.044-.038-.087-.055-.13l2.539-3.088A10.412,10.412,0,0,1,125.607,530.911Z" transform="translate(-87.538 -385.681)" fill="#fff" opacity="0.2"/>
    <path id="Path_268" data-name="Path 268" d="M129.708,531.252l-4.325,5.26a5.744,5.744,0,0,1-.534-.583l3.917-4.763A8.94,8.94,0,0,1,129.708,531.252Z" transform="translate(-89.37 -385.863)" fill="#fff" opacity="0.2"/>
    <path id="Path_269" data-name="Path 269" d="M109.185,533.4h-.8c.355-2.386-3.892-2.414-3.892-2.414a11.792,11.792,0,0,0-2.032-.048v-.009h-8.3v.007a11.807,11.807,0,0,0-2,.05s-4.247.028-3.892,2.414H87.5v.632h.774a3.478,3.478,0,0,0,1.45,2.951,4.439,4.439,0,0,0,4.168.374,5.805,5.805,0,0,0,3.031-3.181,2.726,2.726,0,0,0,.283-1.556q1.118-.046,2.237,0a2.726,2.726,0,0,0,.283,1.556,5.806,5.806,0,0,0,3.031,3.181,4.438,4.438,0,0,0,4.168-.374,3.478,3.478,0,0,0,1.45-2.951h.809Zm-12.628.788a5.253,5.253,0,0,1-2.886,2.95,4.035,4.035,0,0,1-3.612-.346,3.163,3.163,0,0,1-1.388-2.721c0-.255-.012-.51-.024-.765-.1-2,3.567-2.027,3.567-2.027s5.972-.76,4.343,2.909Zm2.921-1.712a18.116,18.116,0,0,0-2.3,0,2.078,2.078,0,0,0-1.609-1.318h5.519a2.078,2.078,0,0,0-1.609,1.318Zm8.567.821c-.013.257-.027.514-.025.772a3.191,3.191,0,0,1-1.4,2.746,4.071,4.071,0,0,1-3.644.35,5.3,5.3,0,0,1-2.915-2.978c-1.644-3.7,4.384-2.935,4.384-2.935s3.7.023,3.6,2.046Z" transform="translate(-65.192 -385.682)" fill="#3f3d56"/>
  </g>
</svg>
