<svg xmlns="http://www.w3.org/2000/svg" xmlns:xlink="http://www.w3.org/1999/xlink" width="406" height="228.477" viewBox="0 0 406 228.477">
  <defs>
    <linearGradient id="linear-gradient" x1="0.5" y1="1" x2="0.5" gradientUnits="objectBoundingBox">
      <stop offset="0" stop-color="gray" stop-opacity="0.251"/>
      <stop offset="0.54" stop-color="gray" stop-opacity="0.122"/>
      <stop offset="1" stop-color="gray" stop-opacity="0.102"/>
    </linearGradient>
  </defs>
  <g id="undraw_surfer_m6jb" transform="translate(-0.128 -0.058)">
    <path id="Path_97" data-name="Path 97" d="M185.419,263.118s-.9-3.347.169-5.81a5.752,5.752,0,0,0,.387-3.319,9.535,9.535,0,0,0-.427-1.559" transform="translate(-130.797 -210.819)" fill="#c7d8d9"/>
    <path id="Path_98" data-name="Path 98" d="M185.839,247.263a6.207,6.207,0,0,1-.674,1.579,6.191,6.191,0,0,1-.678-1.579.77.77,0,0,1,.323-.691.626.626,0,0,1,.706,0A.77.77,0,0,1,185.839,247.263Z" transform="translate(-130.424 -203.939)" fill="#c7d8d9"/>
    <path id="Path_99" data-name="Path 99" d="M188.946,252.489a5.289,5.289,0,0,1-1.356.939,6.509,6.509,0,0,1,.222-1.748.64.64,0,0,1,.934-.219A.789.789,0,0,1,188.946,252.489Z" transform="translate(-132.416 -206.893)" fill="#c7d8d9"/>
    <path id="Path_100" data-name="Path 100" d="M188.373,261.933a4.844,4.844,0,0,1-1.6.055,6.082,6.082,0,0,1,.994-1.381.647.647,0,0,1,.907.328A.78.78,0,0,1,188.373,261.933Z" transform="translate(-131.89 -215.822)" fill="#c7d8d9"/>
    <path id="Path_101" data-name="Path 101" d="M186.651,269.509a4.924,4.924,0,0,1-1.571.355,6.067,6.067,0,0,1,.768-1.551.635.635,0,0,1,.892.189.8.8,0,0,1-.089,1Z" transform="translate(-130.806 -220.683)" fill="#c7d8d9"/>
    <path id="Path_102" data-name="Path 102" d="M183.265,254.872a5.077,5.077,0,0,0,1.514.58,6.291,6.291,0,0,0-.57-1.646.633.633,0,0,0-.956.014A.8.8,0,0,0,183.265,254.872Z" transform="translate(-129.511 -208.257)" fill="#c7d8d9"/>
    <path id="Path_103" data-name="Path 103" d="M181.051,263.4a4.954,4.954,0,0,0,1.6.055,6.175,6.175,0,0,0-.994-1.385.652.652,0,0,0-.878.347A.786.786,0,0,0,181.051,263.4Z" transform="translate(-128.004 -216.761)" fill="#c7d8d9"/>
    <path id="Path_104" data-name="Path 104" d="M180.334,272.139a4.906,4.906,0,0,0,1.571.355,6.117,6.117,0,0,0-.768-1.547.628.628,0,0,0-.7-.139.738.738,0,0,0-.425.626.767.767,0,0,0,.32.7Z" transform="translate(-127.555 -222.301)" fill="#c7d8d9"/>
    <g id="Group_14" data-name="Group 14" transform="translate(52.456 39.396)" opacity="0.7">
      <path id="Path_105" data-name="Path 105" d="M185.419,263.118s-.9-3.347.169-5.81a5.752,5.752,0,0,0,.387-3.319,9.535,9.535,0,0,0-.427-1.559" transform="translate(-183.253 -250.075)" fill="#fff"/>
      <path id="Path_106" data-name="Path 106" d="M185.839,247.263a6.207,6.207,0,0,1-.674,1.579,6.191,6.191,0,0,1-.678-1.579.77.77,0,0,1,.323-.691.626.626,0,0,1,.706,0A.77.77,0,0,1,185.839,247.263Z" transform="translate(-182.88 -246.463)" fill="#fff"/>
      <path id="Path_107" data-name="Path 107" d="M188.946,252.489a5.289,5.289,0,0,1-1.356.939,6.509,6.509,0,0,1,.222-1.748.64.64,0,0,1,.934-.219A.789.789,0,0,1,188.946,252.489Z" transform="translate(-184.871 -249.416)" fill="#fff"/>
      <path id="Path_108" data-name="Path 108" d="M188.373,261.933a4.844,4.844,0,0,1-1.6.055,6.082,6.082,0,0,1,.994-1.381.647.647,0,0,1,.907.328A.78.78,0,0,1,188.373,261.933Z" transform="translate(-184.346 -254.976)" fill="#fff"/>
      <path id="Path_109" data-name="Path 109" d="M186.651,269.509a4.924,4.924,0,0,1-1.571.355,6.067,6.067,0,0,1,.768-1.551.635.635,0,0,1,.892.189.8.8,0,0,1-.089,1Z" transform="translate(-183.262 -259.623)" fill="#fff"/>
      <path id="Path_110" data-name="Path 110" d="M183.265,254.872a5.077,5.077,0,0,0,1.514.58,6.291,6.291,0,0,0-.57-1.646.633.633,0,0,0-.956.014A.8.8,0,0,0,183.265,254.872Z" transform="translate(-181.967 -250.78)" fill="#fff"/>
      <path id="Path_111" data-name="Path 111" d="M181.051,263.4a4.954,4.954,0,0,0,1.6.055,6.175,6.175,0,0,0-.994-1.385.652.652,0,0,0-.878.347A.786.786,0,0,0,181.051,263.4Z" transform="translate(-180.46 -255.874)" fill="#fff"/>
      <path id="Path_112" data-name="Path 112" d="M180.334,272.139a4.906,4.906,0,0,0,1.571.355,6.117,6.117,0,0,0-.768-1.547.628.628,0,0,0-.7-.139.738.738,0,0,0-.425.626.767.767,0,0,0,.32.7Z" transform="translate(-180.011 -261.168)" fill="#fff"/>
    </g>
    <path id="Path_113" data-name="Path 113" d="M433.229,227.1s-.9-3.351.169-5.814a5.743,5.743,0,0,0,.387-3.319,9.494,9.494,0,0,0-.427-1.555" transform="translate(-289.718 -185.748)" fill="#c7d8d9"/>
    <path id="Path_114" data-name="Path 114" d="M433.652,211.4a6.449,6.449,0,0,1-.674,1.6,6.052,6.052,0,0,1-.678-1.6.676.676,0,1,1,1.352,0Z" transform="translate(-289.348 -182.296)" fill="#c7d8d9"/>
    <path id="Path_115" data-name="Path 115" d="M436.756,216.459a5.291,5.291,0,0,1-1.356.939,6.528,6.528,0,0,1,.222-1.748.64.64,0,0,1,.934-.219A.789.789,0,0,1,436.756,216.459Z" transform="translate(-291.337 -185.083)" fill="#c7d8d9"/>
    <path id="Path_116" data-name="Path 116" d="M436.183,225.9a4.867,4.867,0,0,1-1.6.059,6.173,6.173,0,0,1,.994-1.385.648.648,0,0,1,.908.328A.78.78,0,0,1,436.183,225.9Z" transform="translate(-290.811 -190.643)" fill="#c7d8d9"/>
    <path id="Path_117" data-name="Path 117" d="M434.461,233.489a5.007,5.007,0,0,1-1.571.351,6.058,6.058,0,0,1,.768-1.547.635.635,0,0,1,.892.189.8.8,0,0,1-.089,1Z" transform="translate(-289.727 -195.296)" fill="#c7d8d9"/>
    <path id="Path_118" data-name="Path 118" d="M431.075,218.842a5,5,0,0,0,1.514.584,6.357,6.357,0,0,0-.57-1.65.633.633,0,0,0-.956.014A.8.8,0,0,0,431.075,218.842Z" transform="translate(-288.432 -186.447)" fill="#c7d8d9"/>
    <path id="Path_119" data-name="Path 119" d="M428.807,227.353a4.844,4.844,0,0,0,1.6.055,6.082,6.082,0,0,0-.994-1.381.648.648,0,0,0-.908.328A.78.78,0,0,0,428.807,227.353Z" transform="translate(-286.871 -191.521)" fill="#c7d8d9"/>
    <path id="Path_120" data-name="Path 120" d="M428.144,236.113a4.876,4.876,0,0,0,1.571.351,6.179,6.179,0,0,0-.768-1.547.628.628,0,0,0-.7-.139.738.738,0,0,0-.425.626.767.767,0,0,0,.32.7Z" transform="translate(-286.476 -196.835)" fill="#c7d8d9"/>
    <g id="Group_15" data-name="Group 15" transform="translate(141.345 28.411)" opacity="0.7">
      <path id="Path_121" data-name="Path 121" d="M433.229,227.1s-.9-3.351.169-5.814a5.743,5.743,0,0,0,.387-3.319,9.494,9.494,0,0,0-.427-1.555" transform="translate(-431.063 -214.159)" fill="#fff"/>
      <path id="Path_122" data-name="Path 122" d="M433.652,211.4a6.449,6.449,0,0,1-.674,1.6,6.052,6.052,0,0,1-.678-1.6.676.676,0,1,1,1.352,0Z" transform="translate(-430.693 -210.707)" fill="#fff"/>
      <path id="Path_123" data-name="Path 123" d="M436.756,216.459a5.291,5.291,0,0,1-1.356.939,6.528,6.528,0,0,1,.222-1.748.64.64,0,0,1,.934-.219A.789.789,0,0,1,436.756,216.459Z" transform="translate(-432.681 -213.494)" fill="#fff"/>
      <path id="Path_124" data-name="Path 124" d="M436.183,225.9a4.867,4.867,0,0,1-1.6.059,6.173,6.173,0,0,1,.994-1.385.648.648,0,0,1,.908.328A.78.78,0,0,1,436.183,225.9Z" transform="translate(-432.156 -219.054)" fill="#fff"/>
      <path id="Path_125" data-name="Path 125" d="M434.461,233.489a5.007,5.007,0,0,1-1.571.351,6.058,6.058,0,0,1,.768-1.547.635.635,0,0,1,.892.189.8.8,0,0,1-.089,1Z" transform="translate(-431.072 -223.707)" fill="#fff"/>
      <path id="Path_126" data-name="Path 126" d="M431.075,218.842a5,5,0,0,0,1.514.584,6.357,6.357,0,0,0-.57-1.65.633.633,0,0,0-.956.014A.8.8,0,0,0,431.075,218.842Z" transform="translate(-429.777 -214.859)" fill="#fff"/>
      <path id="Path_127" data-name="Path 127" d="M428.807,227.353a4.844,4.844,0,0,0,1.6.055,6.082,6.082,0,0,0-.994-1.381.648.648,0,0,0-.908.328A.78.78,0,0,0,428.807,227.353Z" transform="translate(-428.216 -219.932)" fill="#fff"/>
      <path id="Path_128" data-name="Path 128" d="M428.144,236.113a4.876,4.876,0,0,0,1.571.351,6.179,6.179,0,0,0-.768-1.547.628.628,0,0,0-.7-.139.738.738,0,0,0-.425.626.767.767,0,0,0,.32.7Z" transform="translate(-427.821 -225.247)" fill="#fff"/>
    </g>
    <path id="Path_129" data-name="Path 129" d="M660.183,257.569a6.892,6.892,0,0,1,.111-3.844,3.8,3.8,0,0,0,.258-2.194,6.1,6.1,0,0,0-.283-1.03" transform="translate(-435.341 -209.547)" fill="#c7d8d9"/>
    <path id="Path_130" data-name="Path 130" d="M660.46,247.066a4.137,4.137,0,0,1-.445,1.058,4.138,4.138,0,0,1-.448-1.058.51.51,0,0,1,.211-.464.414.414,0,0,1,.471,0,.51.51,0,0,1,.211.464Z" transform="translate(-435.094 -203.979)" fill="#c7d8d9"/>
    <path id="Path_131" data-name="Path 131" d="M662.516,250.486a3.557,3.557,0,0,1-.9.62,4.316,4.316,0,0,1,.147-1.156.442.442,0,0,1,.406-.254.448.448,0,0,1,.391.28A.534.534,0,0,1,662.516,250.486Z" transform="translate(-436.411 -205.896)" fill="#c7d8d9"/>
    <path id="Path_132" data-name="Path 132" d="M662.108,256.8a3.2,3.2,0,0,1-1.058.035,3.918,3.918,0,0,1,.656-.916.431.431,0,0,1,.577.232A.52.52,0,0,1,662.108,256.8Z" transform="translate(-436.046 -209.639)" fill="#c7d8d9"/>
    <path id="Path_133" data-name="Path 133" d="M661,261.783a3.257,3.257,0,0,1-1.04.233,4.05,4.05,0,0,1,.506-1.026.422.422,0,0,1,.6.12.529.529,0,0,1-.068.669Z" transform="translate(-435.347 -216.06)" fill="#c7d8d9"/>
    <path id="Path_134" data-name="Path 134" d="M658.726,252.083a3.379,3.379,0,0,0,1,.395,4.2,4.2,0,0,0-.38-1.089.42.42,0,0,0-.441-.149.47.47,0,0,0-.324.361A.52.52,0,0,0,658.726,252.083Z" transform="translate(-434.458 -206.822)" fill="#c7d8d9"/>
    <path id="Path_135" data-name="Path 135" d="M657.287,257.735a3.24,3.24,0,0,0,1.076.039,3.827,3.827,0,0,0-.66-.916.428.428,0,0,0-.6.217.515.515,0,0,0,.2.659Z" transform="translate(-433.485 -210.201)" fill="#c7d8d9"/>
    <path id="Path_136" data-name="Path 136" d="M656.877,263.582a3.239,3.239,0,0,0,1.04.233,3.9,3.9,0,0,0-.509-1.022.42.42,0,0,0-.624.1A.524.524,0,0,0,656.877,263.582Z" transform="translate(-433.254 -217.189)" fill="#c7d8d9"/>
    <g id="Group_16" data-name="Group 16" transform="translate(223.442 39.478)" opacity="0.7">
      <path id="Path_137" data-name="Path 137" d="M660.183,257.569a6.892,6.892,0,0,1,.111-3.844,3.8,3.8,0,0,0,.258-2.194,6.1,6.1,0,0,0-.283-1.03" transform="translate(-658.783 -248.932)" fill="#fff"/>
      <path id="Path_138" data-name="Path 138" d="M660.46,247.066a4.137,4.137,0,0,1-.445,1.058,4.138,4.138,0,0,1-.448-1.058.51.51,0,0,1,.211-.464.414.414,0,0,1,.471,0,.51.51,0,0,1,.211.464Z" transform="translate(-658.536 -246.528)" fill="#fff"/>
      <path id="Path_139" data-name="Path 139" d="M662.516,250.486a3.557,3.557,0,0,1-.9.62,4.316,4.316,0,0,1,.147-1.156.442.442,0,0,1,.406-.254.448.448,0,0,1,.391.28A.534.534,0,0,1,662.516,250.486Z" transform="translate(-659.853 -248.445)" fill="#fff"/>
      <path id="Path_140" data-name="Path 140" d="M662.108,256.8a3.2,3.2,0,0,1-1.058.035,3.918,3.918,0,0,1,.656-.916.431.431,0,0,1,.577.232A.52.52,0,0,1,662.108,256.8Z" transform="translate(-659.488 -252.188)" fill="#fff"/>
      <path id="Path_141" data-name="Path 141" d="M661,261.783a3.257,3.257,0,0,1-1.04.233,4.05,4.05,0,0,1,.506-1.026.422.422,0,0,1,.6.12.529.529,0,0,1-.068.669Z" transform="translate(-658.789 -255.235)" fill="#fff"/>
      <path id="Path_142" data-name="Path 142" d="M658.726,252.083a3.379,3.379,0,0,0,1,.395,4.2,4.2,0,0,0-.38-1.089.42.42,0,0,0-.441-.149.47.47,0,0,0-.324.361A.52.52,0,0,0,658.726,252.083Z" transform="translate(-657.9 -249.371)" fill="#fff"/>
      <path id="Path_143" data-name="Path 143" d="M657.287,257.735a3.24,3.24,0,0,0,1.076.039,3.827,3.827,0,0,0-.66-.916.428.428,0,0,0-.6.217.515.515,0,0,0,.2.659Z" transform="translate(-656.927 -252.75)" fill="#fff"/>
      <path id="Path_144" data-name="Path 144" d="M656.877,263.582a3.239,3.239,0,0,0,1.04.233,3.9,3.9,0,0,0-.509-1.022.42.42,0,0,0-.624.1A.524.524,0,0,0,656.877,263.582Z" transform="translate(-656.696 -256.315)" fill="#fff"/>
    </g>
    <path id="Path_145" data-name="Path 145" d="M117.046,153.57v19.473c0,3.209-3.6,4.787-5.563,2.412l-.068-.083c-.635-.789-1.5-1.733-2.375-1.318a4.532,4.532,0,0,0-.717.557,11.82,11.82,0,0,1,.452,1.306c.753,2.763.165,5.711-.638,8.442s-1.837,5.431-1.973,8.288a27.759,27.759,0,0,0,.219,4.12,27.3,27.3,0,0,0,1.542,7.629c.542,1.3,1.306,2.617,1.144,4.038a34.162,34.162,0,0,1-12.583-1.756c2.816-3.126,2.812-8.079,2.626-12.472l-.456-10.617a8.041,8.041,0,0,0-.527-3.035,4.528,4.528,0,0,0-3.056-2.368,12.17,12.17,0,0,0-3.842-.138,2.454,2.454,0,0,1,.265-1.6,16.989,16.989,0,0,0,6.331,1.63.753.753,0,0,0,.787-.189.944.944,0,0,0,.246-.845,20.307,20.307,0,0,0-.434-5.233h0c-1.159.3-2.184,1.31-3.375,1.212-1.564-.13-2.489-2.056-3.946-2.648-1.13-.458-2.371-.055-3.551.182s-2.586.221-3.365-.789c-.979-1.275-.359-3.3-1-4.811-.9-2.163-3.637-2.2-5.786-1.906a6.922,6.922,0,0,1,3.626-3c-.778-1.531-3.555-1.429-3.408-3.272a1.818,1.818,0,0,1,.538-1.129q1.194-1.208,2.4-2.408L77,151.755c-1-.414-2.152-1-2.019-2.451a2.5,2.5,0,0,1,.653-1.429l.226-.253a4.773,4.773,0,0,1,3.537-1.579l20.8-6.607a12.246,12.246,0,0,1,11.616,2.367,15.071,15.071,0,0,1,5.243,11.648Z" transform="translate(-60.193 -138.81)" fill="#c7d8d9"/>
    <path id="Path_146" data-name="Path 146" d="M117.046,153.57v19.473c0,3.209-3.6,4.787-5.563,2.412l-.068-.083c-.635-.789-1.5-1.733-2.375-1.318a4.532,4.532,0,0,0-.717.557,11.82,11.82,0,0,1,.452,1.306c.753,2.763.165,5.711-.638,8.442s-1.837,5.431-1.973,8.288a27.759,27.759,0,0,0,.219,4.12,27.3,27.3,0,0,0,1.542,7.629c.542,1.3,1.306,2.617,1.144,4.038a34.162,34.162,0,0,1-12.583-1.756c2.816-3.126,2.812-8.079,2.626-12.472l-.456-10.617a8.041,8.041,0,0,0-.527-3.035,4.528,4.528,0,0,0-3.056-2.368,12.17,12.17,0,0,0-3.842-.138,2.454,2.454,0,0,1,.265-1.6,16.989,16.989,0,0,0,6.331,1.63.753.753,0,0,0,.787-.189.944.944,0,0,0,.246-.845,20.307,20.307,0,0,0-.434-5.233h0c-1.159.3-2.184,1.31-3.375,1.212-1.564-.13-2.489-2.056-3.946-2.648-1.13-.458-2.371-.055-3.551.182s-2.586.221-3.365-.789c-.979-1.275-.359-3.3-1-4.811-.9-2.163-3.637-2.2-5.786-1.906a6.922,6.922,0,0,1,3.626-3c-.778-1.531-3.555-1.429-3.408-3.272a1.818,1.818,0,0,1,.538-1.129q1.194-1.208,2.4-2.408L77,151.755c-1-.414-2.152-1-2.019-2.451a2.5,2.5,0,0,1,.653-1.429l.226-.253a4.773,4.773,0,0,1,3.537-1.579l20.8-6.607a12.246,12.246,0,0,1,11.616,2.367,15.071,15.071,0,0,1,5.243,11.648Z" transform="translate(-60.193 -138.81)" fill="#fff" opacity="0.7"/>
    <path id="Path_147" data-name="Path 147" d="M615.873,186.346v10.791a1.977,1.977,0,0,1-1.135,1.8,1.679,1.679,0,0,1-1.949-.467l-.036-.047c-.359-.434-.832-.959-1.316-.73a2.355,2.355,0,0,0-.4.308,7.109,7.109,0,0,1,.251.726,8.671,8.671,0,0,1-.359,4.677,18.969,18.969,0,0,0-1.076,4.6,22.634,22.634,0,0,0,.976,6.508,4.739,4.739,0,0,1,.635,2.238,18.814,18.814,0,0,1-6.973-.975c1.56-1.729,1.56-4.476,1.456-6.911q-.129-2.94-.251-5.885a4.395,4.395,0,0,0-.294-1.681,2.51,2.51,0,0,0-1.693-1.314,6.743,6.743,0,0,0-2.127-.075,1.354,1.354,0,0,1,.147-.888,9.368,9.368,0,0,0,3.508.9.419.419,0,0,0,.436-.108.525.525,0,0,0,.135-.468,11.188,11.188,0,0,0-.237-2.9h0c-.642.166-1.213.726-1.872.671-.865-.075-1.381-1.141-2.2-1.468a3.472,3.472,0,0,0-1.969.1,1.824,1.824,0,0,1-1.862-.434c-.545-.706-.2-1.827-.556-2.668-.5-1.184-2.016-1.22-3.207-1.058a3.837,3.837,0,0,1,2.009-1.662c-.43-.853-1.969-.789-1.89-1.812a1.017,1.017,0,0,1,.3-.628l1.327-1.334-1.969-.821c-.556-.229-1.2-.553-1.119-1.358a1.378,1.378,0,0,1,.359-.789l.129-.142a2.632,2.632,0,0,1,1.959-.88l11.518-3.647a6.786,6.786,0,0,1,6.427,1.32,8.352,8.352,0,0,1,2.9,6.447Z" transform="translate(-392.125 -162.626)" fill="#c7d8d9"/>
    <path id="Path_148" data-name="Path 148" d="M615.873,186.346v10.791a1.977,1.977,0,0,1-1.135,1.8,1.679,1.679,0,0,1-1.949-.467l-.036-.047c-.359-.434-.832-.959-1.316-.73a2.355,2.355,0,0,0-.4.308,7.109,7.109,0,0,1,.251.726,8.671,8.671,0,0,1-.359,4.677,18.969,18.969,0,0,0-1.076,4.6,22.634,22.634,0,0,0,.976,6.508,4.739,4.739,0,0,1,.635,2.238,18.814,18.814,0,0,1-6.973-.975c1.56-1.729,1.56-4.476,1.456-6.911q-.129-2.94-.251-5.885a4.395,4.395,0,0,0-.294-1.681,2.51,2.51,0,0,0-1.693-1.314,6.743,6.743,0,0,0-2.127-.075,1.354,1.354,0,0,1,.147-.888,9.368,9.368,0,0,0,3.508.9.419.419,0,0,0,.436-.108.525.525,0,0,0,.135-.468,11.188,11.188,0,0,0-.237-2.9h0c-.642.166-1.213.726-1.872.671-.865-.075-1.381-1.141-2.2-1.468a3.472,3.472,0,0,0-1.969.1,1.824,1.824,0,0,1-1.862-.434c-.545-.706-.2-1.827-.556-2.668-.5-1.184-2.016-1.22-3.207-1.058a3.837,3.837,0,0,1,2.009-1.662c-.43-.853-1.969-.789-1.89-1.812a1.017,1.017,0,0,1,.3-.628l1.327-1.334-1.969-.821c-.556-.229-1.2-.553-1.119-1.358a1.378,1.378,0,0,1,.359-.789l.129-.142a2.632,2.632,0,0,1,1.959-.88l11.518-3.647a6.786,6.786,0,0,1,6.427,1.32,8.352,8.352,0,0,1,2.9,6.447Z" transform="translate(-392.125 -162.626)" fill="#fff" opacity="0.7"/>
    <path id="Path_149" data-name="Path 149" d="M1004.2,174v7.566a1.377,1.377,0,0,0,.79,1.266,1.169,1.169,0,0,0,1.363-.33l.025-.032c.248-.3.585-.675.926-.513a1.877,1.877,0,0,1,.28.217,4.237,4.237,0,0,0-.176.509,6.07,6.07,0,0,0,.251,3.288,13.656,13.656,0,0,1,.768,3.228,10.9,10.9,0,0,1-.086,1.6,10.642,10.642,0,0,1-.6,2.968,3.351,3.351,0,0,0-.445,1.579,13.283,13.283,0,0,0,4.9-.687c-1.1-1.216-1.1-3.157-1.022-4.855.057-1.377.118-2.763.176-4.132a3.1,3.1,0,0,1,.2-1.184,1.761,1.761,0,0,1,1.191-.924,4.748,4.748,0,0,1,1.5-.055.984.984,0,0,0-.1-.624,6.591,6.591,0,0,1-2.464.635.377.377,0,0,1-.3-.075.464.464,0,0,1-.1-.328,7.738,7.738,0,0,1,.169-2.037h0c.448.118.85.509,1.313.47.61-.051.969-.789,1.542-1.03a2.45,2.45,0,0,1,1.385.071,1.272,1.272,0,0,0,1.306-.308c.384-.493.144-1.283.391-1.871.359-.841,1.435-.856,2.253-.742a2.678,2.678,0,0,0-1.413-1.184c.3-.6,1.385-.557,1.327-1.275a.686.686,0,0,0-.208-.438l-.932-.939,1.385-.576c.391-.162.839-.395.786-.955a.978.978,0,0,0-.255-.553l-.09-.1a1.847,1.847,0,0,0-1.377-.62l-8.1-2.573a4.769,4.769,0,0,0-4.522.921,5.869,5.869,0,0,0-2.042,4.533Z" transform="translate(-656.102 -156.589)" fill="#c7d8d9"/>
    <path id="Path_150" data-name="Path 150" d="M1004.2,174v7.566a1.377,1.377,0,0,0,.79,1.266,1.169,1.169,0,0,0,1.363-.33l.025-.032c.248-.3.585-.675.926-.513a1.877,1.877,0,0,1,.28.217,4.237,4.237,0,0,0-.176.509,6.07,6.07,0,0,0,.251,3.288,13.656,13.656,0,0,1,.768,3.228,10.9,10.9,0,0,1-.086,1.6,10.642,10.642,0,0,1-.6,2.968,3.351,3.351,0,0,0-.445,1.579,13.283,13.283,0,0,0,4.9-.687c-1.1-1.216-1.1-3.157-1.022-4.855.057-1.377.118-2.763.176-4.132a3.1,3.1,0,0,1,.2-1.184,1.761,1.761,0,0,1,1.191-.924,4.748,4.748,0,0,1,1.5-.055.984.984,0,0,0-.1-.624,6.591,6.591,0,0,1-2.464.635.377.377,0,0,1-.3-.075.464.464,0,0,1-.1-.328,7.738,7.738,0,0,1,.169-2.037h0c.448.118.85.509,1.313.47.61-.051.969-.789,1.542-1.03a2.45,2.45,0,0,1,1.385.071,1.272,1.272,0,0,0,1.306-.308c.384-.493.144-1.283.391-1.871.359-.841,1.435-.856,2.253-.742a2.678,2.678,0,0,0-1.413-1.184c.3-.6,1.385-.557,1.327-1.275a.686.686,0,0,0-.208-.438l-.932-.939,1.385-.576c.391-.162.839-.395.786-.955a.978.978,0,0,0-.255-.553l-.09-.1a1.847,1.847,0,0,0-1.377-.62l-8.1-2.573a4.769,4.769,0,0,0-4.522.921,5.869,5.869,0,0,0-2.042,4.533Z" transform="translate(-656.102 -156.589)" fill="#fff" opacity="0.7"/>
    <path id="Path_151" data-name="Path 151" d="M308,341.659h16.4c6.04,0-16.97,16.577-22.046,20.563-5.825,4.566-13.72,6.271-21.185,8.186a236.081,236.081,0,0,0-30.848,10.226,13.6,13.6,0,0,0-4.964,2.94c-1.413,1.539-1.89,3.572-2.74,5.411-3.329,7.175-12.006,10.917-19.671,14.647s-15.783,9.236-16.141,16.971c-.151,3.078,1.4,6.524,4.663,7.59,3.946,1.3,9.563-1.006,11.991,2.056a5.4,5.4,0,0,1,.653,4.341c-1.614,9.421-8.967,17.121-15.725,24.525-3.246,3.552-6.259,9.228-2.285,12.148,3.174,2.333,8.9.88,11.238,3.892a5.836,5.836,0,0,1,.954,3.627c.05,9.042-6.116,17.895-15.255,21.889-5.911,2.589-12.644,3.193-19.219,3.6-8.315.525-16.647.813-24.983.789a88.81,88.81,0,0,1-12.963-.758,103.16,103.16,0,0,1-12.554-2.928L64.7,482.366a17.156,17.156,0,0,1-6.141-2.593,11.022,11.022,0,0,1-3.5-5.92c-3.228-11.888,2.984-24.47.477-36.508-2.737-13.143-15.284-23.1-19.567-35.916-2.9-8.683-1.793-17.954-.642-26.945l4.226-33.666c78.455-3.008,157.365-4.117,235.773-.245C294.6,341.509,288.862,343.9,308,341.659Z" transform="translate(-34 -276.531)" fill="#c7d8d9" opacity="0.1"/>
    <path id="Path_152" data-name="Path 152" d="M806.456,245.388a2.084,2.084,0,0,1-1.892-1.323,2.483,2.483,0,0,1,.288-2.446c3.867-5.087,10.331-13.814,11.191-16.344,1.234-3.655,45.472-16.45,45.472-16.45s19.273-8.533,21.992-13.419c1.611-2.885,9.541-9.827,15.747-15,4.8-4.01,3.992,1.973,9.807,3.678h0c4.541-4.136,16.378-3.157,16.378,8.77l8.573,47.693a4.358,4.358,0,0,1-.766,3.361,3.564,3.564,0,0,1-2.846,1.482Z" transform="translate(-527.956 -163.133)" fill="#c7d8d9"/>
    <path id="Path_153" data-name="Path 153" d="M806.456,245.388a2.084,2.084,0,0,1-1.892-1.323,2.483,2.483,0,0,1,.288-2.446c3.867-5.087,10.331-13.814,11.191-16.344,1.234-3.655,45.472-16.45,45.472-16.45s19.273-8.533,21.992-13.419c1.611-2.885,9.541-9.827,15.747-15,4.8-4.01,3.992,1.973,9.807,3.678h0c4.541-4.136,16.378-3.157,16.378,8.77l8.573,47.693a4.358,4.358,0,0,1-.766,3.361,3.564,3.564,0,0,1-2.846,1.482Z" transform="translate(-527.956 -163.133)" fill="#fff" opacity="0.7"/>
    <path id="Path_154" data-name="Path 154" d="M41.41,278.688s25.708-29.846,53.719-28.638,80.194-11.4,80.194-11.4,41.821-8.857,51.8-4.215S252.443,246.4,263.19,246.4s20.335,33.264,20.335,33.264S41.41,276.249,41.41,278.688Z" transform="translate(-38.67 -199.045)" fill="#c7d8d9"/>
    <path id="Path_155" data-name="Path 155" d="M41.41,278.688s25.708-29.846,53.719-28.638,80.194-11.4,80.194-11.4,41.821-8.857,51.8-4.215S252.443,246.4,263.19,246.4s20.335,33.264,20.335,33.264S41.41,276.249,41.41,278.688Z" transform="translate(-38.67 -199.045)" fill="#fff" opacity="0.7"/>
    <path id="Path_156" data-name="Path 156" d="M813.115,707.321a2.8,2.8,0,0,1-.395,3.2,88.57,88.57,0,0,0,15.424,3.134c1.334.15,2.891.174,3.763-.947.585-.758.718-1.883,1.367-2.562a3.148,3.148,0,0,1,1.417-.73,19.522,19.522,0,0,0,4.76-1.642,4.45,4.45,0,0,0,2.21-4.5c-.481-2.044-2.644-2.9-4.505-3.434l-5.8-1.666a55.3,55.3,0,0,0-10.567-2.056c-1.987-.173-5.223-1.109-7.113-.15-2.339,1.184-1.392,3.5-2.174,5.778-.384,1.117-2.192,2.83-1.392,4.207C810.564,706.741,812.376,706.027,813.115,707.321Z" transform="translate(-531.508 -492.902)" fill="#c7d8d9" opacity="0.1"/>
    <path id="Path_157" data-name="Path 157" d="M612.064,690.415S590.5,689.448,597,695.151s12.407,6.461,15.065,10,3.261,3,12.737,4.049,18.85.995,19.2-3.158,1.32-10.581,0-12.46S612.064,690.415,612.064,690.415Z" transform="translate(-394.188 -489.762)" fill="#c7d8d9" opacity="0.1"/>
    <path id="Path_158" data-name="Path 158" d="M680.817,426.284l.75-.308-2.64-5.107c1.643-1.141,1.191-3.071,1.621-12.594.516-11.418-4.043-11.927-4.731-11.935h-.086c-20.141-11.84-67.138-12.914-92.648-12.543a9.343,9.343,0,0,0-.782-3.434,6.331,6.331,0,0,1-.635-2.81h0v-.825s-.757-7.988-.793-13.991a17.044,17.044,0,0,1,.545-5.21c.495-1.121.7-3.97.681-7.305.036-5.952-.717-13.885-1.862-16.127s-4.351-5.277-6.69-7.633a8.084,8.084,0,0,1-2.256-4.866,10.148,10.148,0,0,0-1.159.091l-.118-.395v-.04a1.285,1.285,0,0,0,.972-.3,2.461,2.461,0,0,0,.481-.667l2.281-4.073a2.522,2.522,0,0,0,.456-1.448c-.082-.841-.965-1.523-.75-2.336a5.439,5.439,0,0,1,.517-.916,2.671,2.671,0,0,0,.172-1.018c.043-1.137.029-2.427-.717-3.2a1.244,1.244,0,0,1-.337-.426,1.3,1.3,0,0,1,.022-.608,3.8,3.8,0,0,0-1.195-3.193,9.244,9.244,0,0,0-2.852-1.7,4.206,4.206,0,0,0-3.146-.478,1.993,1.993,0,0,0-2.052-1.875,11.212,11.212,0,0,0-2.87.789,12.39,12.39,0,0,1-3.024.371,2.1,2.1,0,0,1-1.115-.158.916.916,0,0,1-.456-1.034.756.756,0,0,0-.986.138,4.482,4.482,0,0,0-.639.979,4.159,4.159,0,0,1-1.435,1.476,3.594,3.594,0,0,0,.269-1.52c-.359-.256-.821.067-.986.486a7.176,7.176,0,0,0-.226,1.346c-.222,1.137-1.144,1.95-1.507,3.043a3.97,3.97,0,0,0,.639,3.469,4.976,4.976,0,0,0,1.5,1.334c-.036.114-.075.229-.108.347-1.308,4.978.989,10.244,5.337,12.235l.233.513c.524,1.156,1.177,2.668,1.715,4.172l.093.257a8.646,8.646,0,0,0-.412.809,3.184,3.184,0,0,1,0,3.84s-5.38,4.476-5.208,15.16a34.486,34.486,0,0,0,.391,5.482,187.33,187.33,0,0,1,2.034,24.21c-.911.856-2.238,4.117-3.379,7.305-66.277-.88-80.991,12.077-84.219,17.267a5.635,5.635,0,0,0-.893,2.1c-3.705,8.707.926,18.242.926,18.242l.3.434c8.684,12.3,22.2,18.27,76.582,20.089v.186l-.075,6.512a17.661,17.661,0,0,1-1.6,7.1h0a1.449,1.449,0,0,1,0,.395v.032h0c-.09.959-.976,3.374-7.3,5.068,0,0-9.728-1.677-4.692,3.055,4.3,4.061,16.859,4.341,20.338,4.361a.808.808,0,0,0,.613-.3.983.983,0,0,0,.215-.7l-.671-8.4-.032-.395h.222c-.43-4.661,2.346-16.525,2.346-16.525a1.423,1.423,0,0,0,.075-.126c3.332.079,6.794.142,10.4.193,9.965.142,19.284-.154,27.957-.77a18.281,18.281,0,0,1,1.456,1.934l2.923,5.672.75,1.452.961,1.863v.43h0l.061,9.263s-8.308,7.992.5,5.589l3.192-.351a1.847,1.847,0,0,0,1.076-.533,32.8,32.8,0,0,0,3.946,1.014,9.225,9.225,0,0,0,1.664.154,9.47,9.47,0,0,0,7.891-4.487c4.3.146,9.685.395,16.324.813,16.26.991,32.462,2.415,32.617,2.431.477.051,11.762,1.227,16.959-7.152C688.913,453.015,687.639,441.684,680.817,426.284ZM609.25,467.4a32.545,32.545,0,0,1-3.587-.908.234.234,0,0,1,0-.043l1.076-2.68c2.475-.083,6.008-.079,11.051.079A8.389,8.389,0,0,1,609.25,467.4Zm9.068-4.341c-5.054-.166-8.67-.182-11.267-.1L611.786,451a1.99,1.99,0,0,0-.19-1.823c-.764-1.141-2.231-3.043-3.817-3.647h0a2.837,2.837,0,0,0-.717-.178l-.5-.525-.262-.28c2.443-.091,6.995.655,11.371,6.224a10.773,10.773,0,0,1,1.055,11.56c-.133.225-.266.47-.409.707Zm65.67-3.552c-4.95,7.976-16.167,6.816-16.289,6.8s-16.758-1.472-33.219-2.471c-6.148-.371-11.177-.616-15.3-.762.064-.118.125-.233.186-.355a11.6,11.6,0,0,0-1.144-12.5c-4.989-6.354-10.244-6.71-12.63-6.457l-.513-.568c-.556-.624-1.176-1.334-1.793-2.088,44.156-4.46,69.247-16.944,73.056-18.945l.513-.28.585-.237,1.639,5.38,1.051-.434c6.711,15.136,8.017,26.211,3.86,32.916Z" transform="translate(-311.713 -252.781)" fill="url(#linear-gradient)"/>
    <path id="Path_159" data-name="Path 159" d="M667.909,706.037a.97.97,0,0,1-.216.692.8.8,0,0,1-.609.294c-3.462,0-15.966-.3-20.267-4.306-5.022-4.673,4.663-3.015,4.663-3.015,6.3-1.673,7.174-4.057,7.274-5a.115.115,0,0,1,0-.032,1.378,1.378,0,0,0,0-.395l.251-.162.95-.62,7.135,2.368.147,1.859Z" transform="translate(-425.993 -491.661)" fill="#ec8c9c"/>
    <path id="Path_160" data-name="Path 160" d="M847.618,661.32a9.077,9.077,0,0,1-1.654-.15,37.051,37.051,0,0,1-5.739-1.6c-2.26-.821-3.092-1.421-2.959-2.151.126-.671.359-1.934,17.863-1.354.143-.237.28-.478.4-.718a10.551,10.551,0,0,0-1.051-11.414c-6.345-8.008-13.064-5.92-13.132-5.893l-.212-.789c.072-.024,7.224-2.285,13.9,6.133a11.374,11.374,0,0,1,1.137,12.357c-.057.118-.122.237-.183.351,4.107.146,9.122.395,15.245.754,16.4.983,32.943,2.423,33.108,2.439s11.3,1.16,16.228-6.709c4.218-6.741,2.8-17.954-4.218-33.327l.66-.367c7.149,15.665,8.551,27.154,4.164,34.156-5.183,8.288-16.425,7.1-16.9,7.061-.154,0-16.3-1.421-32.5-2.4-6.632-.395-11.973-.655-16.271-.789a9.453,9.453,0,0,1-7.888,4.416ZM838,657.567c.1.134.538.541,2.443,1.227a36.074,36.074,0,0,0,5.635,1.579,8.4,8.4,0,0,0,8.5-3.509C841.107,656.422,838.421,657.128,838,657.567Z" transform="translate(-549.045 -446.498)" fill="#535461"/>
    <path id="Path_161" data-name="Path 161" d="M831,674.107l-.122,2.033.061,9.579s-8.279,7.894.491,5.526l3.182-.351a1.973,1.973,0,0,0,1.582-1.263l6.1-15.274a1.95,1.95,0,0,0-.187-1.8c-1-1.48-3.2-4.251-5.291-3.726C833.98,669.536,831,674.107,831,674.107Z" transform="translate(-542.724 -476.694)" fill="#ec8c9c"/>
    <path id="Path_162" data-name="Path 162" d="M679.8,538.944c-.556,12.188.359,11.781-3.695,13.419l-.509.276c-4.763,2.475-42.786,21.174-109.679,20.231-70.929-1.006-86.493-6.788-96.113-20.29-.1-.142-.2-.284-.3-.43,0,0-4.613-9.413-.922-18.013a5.635,5.635,0,0,1,.893-2.076c3.4-5.423,19.628-19.434,96.027-16.75,0,0,81.238-4.6,109.482,11.84h.086C675.758,527.171,680.3,527.672,679.8,538.944Z" transform="translate(-311.698 -379.876)" fill="#c7d8d9"/>
    <path id="Path_163" data-name="Path 163" d="M781.111,579.441l-6.952,7.1-.958-1.839-.746-1.437-2.913-5.581c-4.738-7.242-19.632-15.574-19.632-15.574-3.164-1.437-4.373-2.869-4.832-3.718-.359-.667-.718-1.342-1.13-1.973a27.591,27.591,0,0,1-2.633-5.833,51,51,0,0,1-1.5-5.727c-.359-1.693-.56-3.157-.692-4.172-.115-.908-.161-1.444-.161-1.444l1.076-4.294,3.365-13.518,12.554-.675s.061,7.807.05,14.935v3.9c0,1.579-.025,3.011-.043,4.207-.032,1.484-.072,2.589-.122,3.094a12.781,12.781,0,0,0-.075,1.855,5.882,5.882,0,0,0,4.3,5.794c4.154,1.492,11.661,9.417,12.339,13.072.445,2.4,4.082,6.769,6.518,9.472.581.643,1.076,1.184,1.474,1.6C780.831,579.157,781.111,579.441,781.111,579.441Z" transform="translate(-486.01 -387.104)" fill="#565388"/>
    <path id="Path_164" data-name="Path 164" d="M781.111,579.441l-6.952,7.1-.958-1.839-.746-1.437-2.913-5.581c-4.738-7.242-19.632-15.574-19.632-15.574-3.164-1.437-4.373-2.869-4.832-3.718-.359-.667-.718-1.342-1.13-1.973a27.591,27.591,0,0,1-2.633-5.833,51,51,0,0,1-1.5-5.727c-.359-1.693-.56-3.157-.692-4.172-.115-.908-.161-1.444-.161-1.444l1.076-4.294,3.365-13.518,12.554-.675s.061,7.807.05,14.935v3.9c0,1.579-.025,3.011-.043,4.207-.032,1.484-.072,2.589-.122,3.094a12.781,12.781,0,0,0-.075,1.855,5.882,5.882,0,0,0,4.3,5.794c4.154,1.492,11.661,9.417,12.339,13.072.445,2.4,4.082,6.769,6.518,9.472.581.643,1.076,1.184,1.474,1.6C780.831,579.157,781.111,579.441,781.111,579.441Z" transform="translate(-486.01 -387.104)" opacity="0.1"/>
    <path id="Path_165" data-name="Path 165" d="M756.014,557.392v3.9c-3.616.959-12.138,1.1-16.859,1.1-.115-.908-.165-1.444-.165-1.444l1.076-4.294C744.844,557.6,752.66,557.491,756.014,557.392Z" transform="translate(-486.029 -403.476)" fill="#dfe5ee"/>
    <path id="Path_166" data-name="Path 166" d="M757.385,582.088a12.778,12.778,0,0,0-.075,1.851c-9.452-.868-13.082.454-14.427,1.843a50.992,50.992,0,0,1-1.5-5.727c3.709-1.247,12.554-1.156,16.141-1.062C757.46,580.478,757.421,581.583,757.385,582.088Z" transform="translate(-487.562 -417.656)" fill="#dfe5ee"/>
    <path id="Path_167" data-name="Path 167" d="M691.161,697.765h-.176l-8.307-3.047a.111.111,0,0,1,0-.028c.082-.178.158-.359.237-.541l.951-.62L691,695.9Z" transform="translate(-449.916 -491.685)" opacity="0.1"/>
    <path id="Path_168" data-name="Path 168" d="M718.242,489.638l1.23,1.827a7.457,7.457,0,0,0,.624,3.592c.793,1.358,3.623,12.255-9.685,15.369,0,0-7.569,14.209-12.859,19.841l-2.03,4.2a38.7,38.7,0,0,0,0,7.309c.434,2.368,1.352,9.753-1.847,14.694,0,0-2.769,11.714-2.339,16.32h-.359l-8.307-3.047h0a17.262,17.262,0,0,0,1.582-7.041l.079-6.433V532.753a27.857,27.857,0,0,1,1.138-7.9v0a15.281,15.281,0,0,0,.631-4.152c.036-2.944.359-8.612,2.152-12.985.882-2.175,1.754-4.341,2.511-6.587,1.263-3.726,3.081-8.612,4.229-9.674l1.794-3.722,9.559,1.014Z" transform="translate(-449.911 -367.116)" fill="#565388"/>
    <path id="Path_169" data-name="Path 169" d="M732.47,354.271s-11.633,7.953-10.65,5.719c.413-.939-.161-3.11-.972-5.316-.538-1.484-1.187-2.98-1.707-4.12s-.951-2.009-.951-2.009,12-7.984,11.568-4.937a9.55,9.55,0,0,0,.247,2.964c.169.789.387,1.654.635,2.486C731.44,351.769,732.47,354.271,732.47,354.271Z" transform="translate(-472.69 -268.369)" fill="#ec8c9c"/>
    <path id="Path_170" data-name="Path 170" d="M469.808,579.179c-.1-.142-.2-.284-.3-.43,0,0-4.613-9.413-.922-18.013a5.635,5.635,0,0,1,.893-2.076Z" transform="translate(-311.698 -405.526)" fill="#535461"/>
    <path id="Path_171" data-name="Path 171" d="M561.283,579.364c0,3.924-2.891,7.1-6.457,7.1s-6.457-3.181-6.457-7.1,2.891-7.1,6.457-7.1a4.158,4.158,0,0,1,.588.028A6.879,6.879,0,0,1,561.283,579.364Z" transform="translate(-363.784 -413.812)" fill="none" stroke="#535461" stroke-miterlimit="10" stroke-width="1"/>
    <path id="Path_172" data-name="Path 172" d="M561.926,583.007l-4.8,1.8-3.436-10.5a6.171,6.171,0,0,1,4.545-2.06,4.184,4.184,0,0,1,.588.028Z" transform="translate(-367.196 -413.71)" fill="#535461"/>
    <path id="Path_173" data-name="Path 173" d="M729.012,345.628c-1.618,2.763-3.451,5.565-6.675,5.565a8.267,8.267,0,0,1-3.2-.639c-.542-1.184-.951-2.009-.951-2.009s12-7.984,11.568-4.937C729.654,344.369,728.775,344.479,729.012,345.628Z" transform="translate(-472.69 -268.135)" opacity="0.1"/>
    <path id="Path_174" data-name="Path 174" d="M722.575,322.112c0,5.534-4.078,10.021-9.107,10.021s-9.107-4.487-9.107-10.021a10.8,10.8,0,0,1,.359-2.79c1.266-4.789,5.539-7.824,10.026-7.123s7.823,4.926,7.827,9.913Z" transform="translate(-463.821 -248.861)" fill="#ec8c9c"/>
    <path id="Path_175" data-name="Path 175" d="M737.222,363.694s-11.633,7.953-10.65,5.719c.413-.939-.161-3.11-.972-5.316,2.3-4.211,7.407-5.324,9.792-5.616C736.192,361.191,737.222,363.694,737.222,363.694Z" transform="translate(-477.442 -278.082)" opacity="0.1"/>
    <path id="Path_176" data-name="Path 176" d="M726.8,361.3s-7.533-.466-10.313,5.762a6.249,6.249,0,0,1-1.076,4.393s-6.891,5.687-4.8,19.568a177.6,177.6,0,0,1,2.037,24.715s1.794-1.827,5.664,0,18.828,0,18.828,0-1.6-16.723-.244-19.769.545-19.008-1.177-22.327c-1.159-2.23-4.34-5.21-6.668-7.538a7.967,7.967,0,0,1-2.249-4.8Z" transform="translate(-467.578 -281.346)" opacity="0.1"/>
    <path id="Path_177" data-name="Path 177" d="M726.808,359.25s-8.609.134-11.385,6.362a3.121,3.121,0,0,1,0,3.793s-6.891,5.687-4.8,19.568a177.646,177.646,0,0,1,2.034,24.715s1.793-1.827,5.664,0,18.828,0,18.828,0-1.6-16.722-.244-19.769.545-19.008-1.177-22.327c-1.159-2.226-4.34-5.21-6.668-7.538a7.969,7.969,0,0,1-2.249-4.8Z" transform="translate(-467.584 -280.038)" fill="#dfe5ee"/>
    <path id="Path_178" data-name="Path 178" d="M752.972,509,752,511.236l.793,4.294a21.813,21.813,0,0,0,4.193,9.539c2.12,2.7,4.663,4.539,5.969.249,1.614-5.332.359-8.012-.681-9.224a25.69,25.69,0,0,1-2.428-3.43c-1.03-1.65-2.464-3.6-4.007-4.282C753.008,507.2,752.972,509,752.972,509Z" transform="translate(-494.373 -373.295)" fill="#ec8c9c"/>
    <path id="Path_179" data-name="Path 179" d="M739.6,440.22l-.022,3.217.509,6.062a42.673,42.673,0,0,1,2.36,7.5c1.076,4.736,1.209,14.019,1.209,14.019s5.7-2.017,6.815-1.409c0,0,.33-13.814-.839-18.155a35.789,35.789,0,0,1-.678-10.214Z" transform="translate(-486.408 -330.708)" opacity="0.1"/>
    <path id="Path_180" data-name="Path 180" d="M739.6,438.17l-.6,4.2,1.076,5.079a42.673,42.673,0,0,1,2.36,7.5c1.076,4.736,1.209,14.019,1.209,14.019s5.291-1.579,6.4-.951c0,0,.739-14.284-.431-18.617a35.805,35.805,0,0,1-.678-10.218Z" transform="translate(-486.036 -329.402)" fill="#565388"/>
    <path id="Path_181" data-name="Path 181" d="M723.216,322.16a10.4,10.4,0,0,1-3.426,7.83l-.459-.17a1.4,1.4,0,0,1-1.044-1.137c-.334-1.089-.434-2.258-.807-3.339a3.224,3.224,0,0,0-2.152-2.3.444.444,0,0,0-.341.043.7.7,0,0,0-.2.422,3.23,3.23,0,0,1-1.819,2.175,2.323,2.323,0,0,1-2.019,0c-.448-.343-.434-.928-.542-1.468a5.016,5.016,0,0,0-2.267-3.667,10.17,10.17,0,0,0-1.377-.5,6.273,6.273,0,0,1-1.4-.651c1.266-4.789,5.539-7.825,10.026-7.123s7.823,4.927,7.826,9.914Z" transform="translate(-464.462 -248.861)" opacity="0.1"/>
    <path id="Path_182" data-name="Path 182" d="M704.262,314.157a9.863,9.863,0,0,0-1.381-.5,5.586,5.586,0,0,1-2.78-1.9,3.9,3.9,0,0,1-.638-3.43c.359-1.077,1.281-1.883,1.5-3.007a7.619,7.619,0,0,1,.226-1.322c.165-.414.646-.734.986-.481a3.5,3.5,0,0,1-.269,1.5,4.186,4.186,0,0,0,1.435-1.456,4.081,4.081,0,0,1,.631-.959.749.749,0,0,1,.983-.134.9.9,0,0,0,.452,1.018,2.137,2.137,0,0,0,1.112.158,12.7,12.7,0,0,0,3.016-.371,10.715,10.715,0,0,1,2.87-.789,1.969,1.969,0,0,1,2.048,1.851,4.208,4.208,0,0,1,3.131.482,9.213,9.213,0,0,1,2.841,1.681,3.713,3.713,0,0,1,1.187,3.157,1.265,1.265,0,0,0-.018.6,1.182,1.182,0,0,0,.334.422c.75.762.76,2.041.718,3.157a2.584,2.584,0,0,1-.169,1,6.185,6.185,0,0,0-.517.9c-.215.789.664,1.476.75,2.309a2.491,2.491,0,0,1-.456,1.429l-2.281,4.042a2.506,2.506,0,0,1-.477.663c-.588.513-1.435.268-2.152,0l-1.887-.706a1.847,1.847,0,0,1-.606-.328,1.823,1.823,0,0,1-.434-.821c-.337-1.093-.434-2.262-.8-3.343a3.2,3.2,0,0,0-2.152-2.3.429.429,0,0,0-.341.039.7.7,0,0,0-.2.422,3.222,3.222,0,0,1-1.819,2.175,2.323,2.323,0,0,1-2.019,0c-.448-.347-.434-.931-.542-1.476A5.053,5.053,0,0,0,704.262,314.157Z" transform="translate(-460.585 -242.708)" fill="#603456"/>
    <ellipse id="Ellipse_6" data-name="Ellipse 6" cx="7.755" cy="3.655" rx="7.755" ry="3.655" transform="translate(320.64 143.349)" fill="#535461"/>
    <ellipse id="Ellipse_7" data-name="Ellipse 7" cx="7.755" cy="3.655" rx="7.755" ry="3.655" transform="translate(320.64 175.497)" fill="#535461"/>
    <ellipse id="Ellipse_8" data-name="Ellipse 8" cx="7.755" cy="3.655" rx="7.755" ry="3.655" transform="translate(342.241 158.903)" fill="#535461"/>
    <path id="Path_183" data-name="Path 183" d="M1051.567,558.049c-.556,12.188.359,11.781-3.695,13.419l-.509.276-.513-25.465C1047.52,546.276,1052.062,546.777,1051.567,558.049Z" transform="translate(-683.46 -397.935)" fill="#535461"/>
    <path id="Path_184" data-name="Path 184" d="M1015.91,464.294l2.124,6.907,2.493-1.018-3.878-7.412Z" transform="translate(-651.423 -293.277)" fill="#535461"/>
    <path id="Path_185" data-name="Path 185" d="M730.4,388.726s-6.152-1-2.643,15.045c0,0,2.891,8.122,2.952,9.275,0,0,5.477-4.468,9.846-1.081,0,0,.861-9.82-1.352-14.426C739.2,397.54,737.707,386.335,730.4,388.726Z" transform="translate(-478.132 -297.486)" opacity="0.1"/>
    <path id="Path_186" data-name="Path 186" d="M731.431,386.666s-6.152-1-2.644,15.045c0,0,2.891,8.126,2.952,9.275,0,0,5.477-4.468,9.846-1.081,0,0,.861-9.82-1.352-14.426C740.233,395.48,738.737,384.275,731.431,386.666Z" transform="translate(-478.793 -296.176)" fill="#dfe5ee"/>
    <path id="Path_187" data-name="Path 187" d="M737.24,423.02s2.03-1.492,2.339-2.439,1.976.746,1.263,1.559S737.24,423.02,737.24,423.02Z" transform="translate(-484.907 -316.999)" fill="#565388"/>
    <path id="Path_188" data-name="Path 188" d="M840.23,665.012l-7.174,6.047-.746-1.437,6.435-6.212C839.337,664.038,839.846,664.606,840.23,665.012Z" transform="translate(-545.875 -473.453)" fill="#535461"/>
    <path id="Path_189" data-name="Path 189" d="M768.34,406.41s2.1,9.224,1.237,12.535" transform="translate(-504.852 -308.518)" opacity="0.1"/>
    <path id="Path_190" data-name="Path 190" d="M803.09,537.611v.43l7.425-7.621-.473.083Z" transform="translate(-514.941 -338.166)" opacity="0.1"/>
    <path id="Path_191" data-name="Path 191" d="M726.67,372.4s9.244-3.027,11.238-5.4" transform="translate(-478.128 -283.323)" opacity="0.1"/>
    <path id="Path_192" data-name="Path 192" d="M192.27,571.824c12.2-.107,22.523-2.885,29.908-2.716s14.032-.308,21.048,1.354" transform="translate(-135.417 -411.213)" fill="#c7d8d9" opacity="0.1"/>
    <path id="Path_193" data-name="Path 193" d="M87.07,523.83c12.2-.1,22.523-2.881,29.908-2.712s14.029-.308,21.045,1.354" transform="translate(-67.952 -380.828)" fill="#c7d8d9" opacity="0.1"/>
    <path id="Path_194" data-name="Path 194" d="M303.24,665.295c12.2-.158,22.523-4.373,29.908-4.113s14.029-.47,21.045,2.052" transform="translate(-206.582 -472.098)" fill="#c7d8d9" opacity="0.1"/>
    <path id="Path_195" data-name="Path 195" d="M318.88,609.361c12.2-.3,22.526-8.288,29.908-7.795s14.032-.892,21.048,3.888" transform="translate(-216.612 -432.03)" fill="#c7d8d9" opacity="0.1"/>
    <path id="Path_196" data-name="Path 196" d="M378.93,383.912c12.2-.051,22.523-1.441,29.908-1.358s14.032-.154,21.048.679" transform="translate(-255.122 -293.061)" fill="#c7d8d9" opacity="0.1"/>
    <path id="Path_197" data-name="Path 197" d="M176.83,368.318c12.2-.051,22.523-1.441,29.908-1.354s14.032-.158,21.045.675" transform="translate(-125.515 -283.191)" fill="#c7d8d9" opacity="0.1"/>
    <path id="Path_198" data-name="Path 198" d="M307.9,448.442c12.2-.055,22.526-1.445,29.908-1.358s14.032-.154,21.048.675" transform="translate(-209.571 -333.907)" fill="#c7d8d9" opacity="0.1"/>
    <path id="Path_199" data-name="Path 199" d="M105.8,406.042c12.2-.051,22.526-1.441,29.908-1.358s14.032-.154,21.048.679" transform="translate(-79.964 -307.069)" fill="#c7d8d9" opacity="0.1"/>
  </g>
</svg>
