<svg xmlns="http://www.w3.org/2000/svg" xmlns:xlink="http://www.w3.org/1999/xlink" width="406" height="245" viewBox="0 0 406 245">
  <defs>
    <linearGradient id="linear-gradient" x1="0.502" y1="1" x2="0.502" gradientUnits="objectBoundingBox">
      <stop offset="0" stop-color="gray" stop-opacity="0.251"/>
      <stop offset="0.535" stop-color="gray" stop-opacity="0.122"/>
      <stop offset="1" stop-color="gray" stop-opacity="0.102"/>
    </linearGradient>
    <linearGradient id="linear-gradient-3" x1="0.5" y1="1" x2="0.5" y2="0" xlink:href="#linear-gradient"/>
  </defs>
  <g id="undraw_Beach_rvmg" transform="translate(0.001 0)">
    <path id="Path_39" data-name="Path 39" d="M442.218,154.708c-14.762,18.644-12.42,43.86-6.351,63.7,2.032,6.643,4.382,13.653,2.451,21.124-2.361,9.136-10.586,16.366-18.862,20.529-15.088,7.589-32.188,7.531-44.519-.152-10.657-6.639-17.565-18.317-28.454-24.594-18.222-10.5-43.512-3.816-65.553,6.345-15.593,7.189-32.77,16.275-47,11.344-10.015-3.469-16.144-13.457-18.913-24.359-1.337-5.264-2.1-11.018-5.291-15.011a19.715,19.715,0,0,0-7.255-5.235c-24.925-11.739-59.032-1.439-83.04-14.766-16.214-9-25.232-27.8-27.987-47.972s.073-41.8,3.534-63.1c2.46-15.139,5.729-31.357,15.958-43.746a51,51,0,0,1,42.211-17.977c14.547,1.087,27.084,8.285,37.853,17.1,13.46,11.018,25.535,25.135,43.115,28.572,11.972,2.341,25.132-.606,37.911-2.323,21.364-2.869,42.376-2.284,63.238-1.463,19.972.786,40.064,1.812,58.6,7.21,13.121,3.82,23.113,11.924,35.333,17.142,7.966,3.4,17,3.762,24.4,8.327,9.118,5.623,16.922,16.084,13.041,29.426C462.955,137.516,450.054,144.813,442.218,154.708Z" transform="translate(-79.262 -20.712)" fill="#c7d8d9" opacity="0.1"/>
    <path id="Path_40" data-name="Path 40" d="M233.661,386.715s32.465,4.761,55.87-20.232c0,0-19.63-15.174-33.22-11.9s-22.65,22.613-22.65,22.613Z" transform="translate(-168.659 -259.581)" fill="#c7d8d9"/>
    <path id="Path_41" data-name="Path 41" d="M233.661,386.715s32.465,4.761,55.87-20.232c0,0-19.63-15.174-33.22-11.9s-22.65,22.613-22.65,22.613Z" transform="translate(-168.659 -259.581)" opacity="0.1"/>
    <path id="Path_42" data-name="Path 42" d="M211.655,374.961l33.22,53.854,7.927-3.273L218.45,374.961Z" transform="translate(-131.961 -269.184)" fill="#504f60"/>
    <path id="Path_43" data-name="Path 43" d="M258.257,212.329a92.335,92.335,0,0,0-17.825,1.871,88.627,88.627,0,0,0-22.62,7.944,68.523,68.523,0,0,0-15.424,10.417c-23.952-33.181-18.6-93.039-18.146-97.612v0c.008-.071.011-.131.015-.173l.011-.1C200.122,134.673,258.257,212.329,258.257,212.329Z" transform="translate(-137.212 -100.766)" fill="#c7d8d9"/>
    <path id="Path_44" data-name="Path 44" d="M466.3,549.151l-36.71,7.8s-56.494.893-76.079,14.282-76.456,11.9-77.962,11.9-22.6-14.579-61.014.6-84.365,5.653-84.365,5.653-47.832,15.769-61.39,10.414-5.273-12.5-5.273-12.5,27.87-16.959,6.4-35.7,3.766-18.745,3.766-18.745h72.61a44.022,44.022,0,0,0,17.027-3.234c5.672-2.4,12.346-1.63,16.813-.622a33.818,33.818,0,0,0,11.879.506c36.446-4.883,59.7-3.484,69.367-2.419a68.059,68.059,0,0,0,12.139.235c12.316-.848,37.874-2.648,51.753-3.951,3.819-.357,6.753-.675,8.286-.928,4.294-.708,24.564,2.413,45.067,6.587,22.658,4.609,45.606,10.506,47.583,13.942,2.727,4.737,26.759,4.954,39.832,4.713a.91.91,0,0,1,.959.643A.771.771,0,0,1,466.3,549.151Z" transform="translate(-61.006 -383.541)" fill="#eed1d7"/>
    <path id="Path_45" data-name="Path 45" d="M675.491,662.864l-9.06,1.488s-35.862-15.174-40.77-10.116" transform="translate(-413.065 -473.07)" fill="#ccb2bb"/>
    <path id="Path_46" data-name="Path 46" d="M597.955,531.132s-58.135-9.224-82.294,1.785" transform="translate(-344.526 -383.029)" fill="#ccb2bb"/>
    <path id="Path_47" data-name="Path 47" d="M585.043,588.692s-14.534-4.683-13.9-2.007,8.063,5.352,8.063,5.352-14.641-1-14,3.01c0,0,16.762-.334,16.126,2.676s0,7.024,2.758,6.188,4.456-10.536,11.882-5.853,6.365-4.85-2.758-5.686c0,0,4.88-2.843,4.456-4.181S585.043,588.692,585.043,588.692Z" transform="translate(-375.339 -425.118)" opacity="0.1"/>
    <path id="Path_48" data-name="Path 48" d="M584.481,587.006s-14.534-4.683-13.9-2.007,8.063,5.352,8.063,5.352-14.64-1-14,3.01c0,0,16.762-.334,16.126,2.676s0,7.024,2.758,6.188,4.456-10.536,11.882-5.853,6.365-4.85-2.758-5.686c0,0,4.88-2.843,4.456-4.181S584.481,587.006,584.481,587.006Z" transform="translate(-374.988 -423.912)" fill="#f89898"/>
    <path id="Path_49" data-name="Path 49" d="M879.311,614.589s-20.762-5.058-22.65-4.165" transform="translate(-557.036 -442.193)" fill="#ccb2bb"/>
    <path id="Path_50" data-name="Path 50" d="M489.661,631.938s27.935-6.248,38.5-1.488" transform="translate(-328.257 -455.276)" fill="#ccb2bb"/>
    <path id="Path_51" data-name="Path 51" d="M612.161,520.026s7.55-17.555,22.65-13.984a73.417,73.417,0,0,1,26.425,12.794l-49.075,2.975Z" transform="translate(-404.647 -367.609)" fill="#eed1d7"/>
    <path id="Path_52" data-name="Path 52" d="M177.161,620.173s11.7,3.868,31.332,2.38a65.6,65.6,0,0,1,35.107,7.736" transform="translate(-133.314 -449.414)" fill="#ccb2bb"/>
    <g id="Group_8" data-name="Group 8" transform="translate(91.166 102.251)" opacity="0.05">
      <path id="Path_53" data-name="Path 53" d="M303.066,379.474a.586.586,0,0,0,.123-.408A2.114,2.114,0,0,0,303.066,379.474Z" transform="translate(-303.066 -379.066)" fill="url(#linear-gradient)"/>
    </g>
    <g id="Group_9" data-name="Group 9" transform="translate(91.166 102.055)" opacity="0.05">
      <path id="Path_54" data-name="Path 54" d="M303.066,378.785a.586.586,0,0,0,.123-.408A2.113,2.113,0,0,0,303.066,378.785Z" transform="translate(-303.066 -378.377)" fill="url(#linear-gradient)"/>
    </g>
    <g id="Group_10" data-name="Group 10" transform="translate(107.051 145.412)" opacity="0.05">
      <path id="Path_55" data-name="Path 55" d="M351.641,537.539a28.113,28.113,0,0,0-5.3,3.8c-.8-4.167-1.323-7.926-.987-9.489a1.235,1.235,0,0,1,.3-.653c1.517-.082,4.6,2.908,7.061,5.611C352.037,537.239,351.641,537.539,351.641,537.539Z" transform="translate(-345.255 -531.196)" fill="url(#linear-gradient-3)"/>
    </g>
    <path id="Path_57" data-name="Path 57" d="M442.18,613.82s13.231,20.656,16.538,21.458a8.508,8.508,0,0,0,5.6-.4s27.479-4.011,22.39.6-49.615,1.8-49.615,1.8L425.9,617.43Z" transform="translate(-288.526 -445.333)" fill="#ef91a3"/>
    <path id="Path_58" data-name="Path 58" d="M350.145,588.391s21.372-11.23,27.224-11.23c0,0,8.651-2.206,13.739,13.035,0,0-17.556,2.406-17.3,9.024l-3.308-5.615-14.248,12.433-17.3-9.225Z" transform="translate(-234.304 -419.163)" opacity="0.1"/>
    <path id="Path_59" data-name="Path 59" d="M350.145,587.043s21.372-11.23,27.224-11.23c0,0,8.651-2.206,13.739,13.035,0,0-17.556,2.406-17.3,9.024l-3.308-5.615-14.248,12.433-17.3-9.225Z" transform="translate(-234.304 -418.198)" fill="#5d526e"/>
    <path id="Path_60" data-name="Path 60" d="M396.133,561.767c-1.272,4.813-7.887,5.615-7.887,5.615l-9.414-4.612s-1.328-6.909-2.45-11.12a10.786,10.786,0,0,0-1.112-3.118c-1.018-1,15.012-.8,15.012-.8a47.1,47.1,0,0,1,3.068,4.626C395.095,555.366,396.812,559.2,396.133,561.767Z" transform="translate(-256.896 -397.865)" fill="#ef91a3"/>
    <path id="Path_61" data-name="Path 61" d="M277.625,447.538l-5.343,20.054-12.976-2.607s-11.958-7.42-8.4-12.032a12.332,12.332,0,0,0,2.03-5.97,40.215,40.215,0,0,0-.249-9.672s14.248-3.008,11.45,5.214c-1.15,3.377.919,4.825,3.755,5.36C271.969,448.653,277.625,447.538,277.625,447.538Z" transform="translate(-178.986 -318.743)" fill="#ef91a3"/>
    <path id="Path_62" data-name="Path 62" d="M271.925,447.885a17.308,17.308,0,0,1-6.554,1.257c-3.142,0-6.167-1.55-8.524-2.908a36.165,36.165,0,0,0-.127-8.924s14.248-3.008,11.45,5.214C267.02,445.9,269.089,447.35,271.925,447.885Z" transform="translate(-183.016 -318.306)" opacity="0.1"/>
    <ellipse id="Ellipse_4" data-name="Ellipse 4" cx="14.248" cy="11.23" rx="14.248" ry="11.23" transform="translate(68.115 108.215)" fill="#ef91a3"/>
    <path id="Path_63" data-name="Path 63" d="M239.551,482.353l3.864,4.248,2.2-6.282a25.107,25.107,0,0,0,1.333-7.7,4.6,4.6,0,0,1,1.3-3.063c3.965-1.7,6.909-2.6,11.905-2.2a31.2,31.2,0,0,1,13.584,4.339c14.852,8.99,21.836,23.932,21.836,23.932s-20.355-3.209-19.337.4c0,0-8.905-11.23-10.941-9.425s4.325,25.669,4.325,25.669l-41.727,2.406-10.941-22.861.509-17.046s10.814-3.91,13.1-3.91c.8,0,.679-.22,1.018.8C232.889,475.6,236.542,479.044,239.551,482.353Z" transform="translate(-158.085 -341.073)" opacity="0.1"/>
    <path id="Path_64" data-name="Path 64" d="M393.35,552.356c-3.539-.5-13.564-1.789-16.968-.706a10.786,10.786,0,0,0-1.112-3.118c-1.018-1,15.012-.8,15.012-.8A47.105,47.105,0,0,1,393.35,552.356Z" transform="translate(-256.893 -397.449)" opacity="0.1"/>
    <path id="Path_65" data-name="Path 65" d="M240.9,481.679l3.864,4.248,2.2-6.282a25.107,25.107,0,0,0,1.333-7.7,4.6,4.6,0,0,1,1.3-3.062c3.965-1.7,6.909-2.6,11.906-2.2a31.2,31.2,0,0,1,13.583,4.339c14.852,8.99,21.836,23.932,21.836,23.932s-20.355-3.209-19.337.4c0,0-8.905-11.23-10.941-9.425S270.97,511.6,270.97,511.6L229.243,514,218.3,491.14l.509-17.046s10.814-3.911,13.1-3.911c.8,0,.679-.22,1.018.8C234.238,474.925,237.89,478.37,240.9,481.679Z" transform="translate(-158.924 -340.59)" fill="#dfecfb"/>
    <path id="Path_66" data-name="Path 66" d="M237.584,399.037c-1.43.2-3.1-.179-3.792-1.184a5.528,5.528,0,0,1-.582-1.559c-.739-2.284-3.156-3.991-4.346-6.153-2-3.643-.245-7.824,1.52-11.543a11.817,11.817,0,0,1,3.649-5.029c2.844-1.992,7.084-2.04,10.856-1.648a27.859,27.859,0,0,0,4.6.276,6.542,6.542,0,0,0,4.083-1.488c.819.419.516,1.388.349,2.146a1.858,1.858,0,0,0,.737,2.085c.766.461,2.2.081,2.131-.677-.689,1.606.832,3.382,2.791,4.083a9.434,9.434,0,0,0,2.041.465c2.443.277,4.245,1.94,4.209,3.885v.017a.871.871,0,0,1-.171.6,1.5,1.5,0,0,1-.6.317,9.1,9.1,0,0,0-4.588,3.451,5.4,5.4,0,0,1-1.9,2.249c-1.2.609-2.759.306-4.177.392a5.78,5.78,0,0,0-5.118,3.312c-.33.929-.286,1.941-1.023,2.766a2.117,2.117,0,0,1-1.392.692c-1.1.094-1.611-.686-2.4-1.088-1.861-.946-3.048.3-3.636,1.481C240.177,398.18,239.726,398.736,237.584,399.037Z" transform="translate(-165.104 -271.369)" opacity="0.1"/>
    <path id="Path_67" data-name="Path 67" d="M237.584,398.363c-1.43.2-3.1-.179-3.792-1.184a5.528,5.528,0,0,1-.582-1.559c-.739-2.284-3.156-3.991-4.346-6.153-2-3.643-.245-7.824,1.52-11.543a11.817,11.817,0,0,1,3.649-5.029c2.844-1.992,7.084-2.04,10.856-1.648a27.859,27.859,0,0,0,4.6.276,6.542,6.542,0,0,0,4.083-1.488c.819.419.516,1.388.349,2.146a1.858,1.858,0,0,0,.737,2.085c.766.461,2.2.081,2.131-.677-.689,1.606.832,3.382,2.791,4.083a9.434,9.434,0,0,0,2.041.465c2.443.277,4.245,1.94,4.209,3.885v.017a.871.871,0,0,1-.171.6,1.494,1.494,0,0,1-.6.317,9.1,9.1,0,0,0-4.588,3.451,5.4,5.4,0,0,1-1.9,2.249c-1.2.609-2.759.306-4.177.392a5.78,5.78,0,0,0-5.118,3.312c-.33.929-.286,1.941-1.023,2.766a2.117,2.117,0,0,1-1.392.692c-1.1.094-1.611-.686-2.4-1.088-1.861-.946-3.048.3-3.636,1.481C240.177,397.506,239.726,398.062,237.584,398.363Z" transform="translate(-165.104 -270.886)" fill="#572142"/>
    <g id="Group_12" data-name="Group 12" transform="translate(69.95 125.999)" opacity="0.05">
      <path id="Path_68" data-name="Path 68" d="M340.031,470.828c13.737,8.315,20.742,21.72,21.717,23.686,1.9.245,3.173.446,3.173.446s-6.984-14.942-21.836-23.932A31.2,31.2,0,0,0,329.5,466.69c-.693-.056-1.344-.085-1.966-.092A31.12,31.12,0,0,1,340.031,470.828Z" transform="translate(-297.065 -466.598)"/>
      <path id="Path_69" data-name="Path 69" d="M248.846,479.237c1.305,3.939,4.957,7.384,7.967,10.692l3.864,4.248.8-2.279-1.608-1.768c-3.01-3.308-6.662-6.754-7.967-10.692-.339-1.022-.216-.8-1.018-.8a10.407,10.407,0,0,0-2.111.374Z" transform="translate(-248.035 -475.04)"/>
      <path id="Path_70" data-name="Path 70" d="M371.758,557.1c.827.979,1.354,1.645,1.354,1.645-.444-1.575,3.18-1.852,7.407-1.664A36.4,36.4,0,0,0,371.758,557.1Z" transform="translate(-324.594 -529.984)"/>
      <path id="Path_71" data-name="Path 71" d="M284.1,531.3c-1.2-.892-2.218-1.323-2.754-.847-2.035,1.8,4.325,25.669,4.325,25.669l-38.85,2.24.175.367,41.727-2.406S283.185,535.545,284.1,531.3Z" transform="translate(-246.82 -511.317)"/>
    </g>
    <path id="Path_72" data-name="Path 72" d="M190.665,650.806a25.8,25.8,0,0,1-17.884,3.953c-8.508-1.438-1.371-4.652,1.89-5.906a1.087,1.087,0,0,0,.688-.685.851.851,0,0,0-.253-.851,33.393,33.393,0,0,0-6.4-4.791,40.444,40.444,0,0,1-6.743-5.449v0c-1.142-1.089-2.191-2.152-3.046-3.044a.839.839,0,0,1-.038-1.171,1.464,1.464,0,0,1,1.394-.407l16.681,3.57a1.335,1.335,0,0,1,.662.343l5.483,5.4,7.748,7.633A.87.87,0,0,1,190.665,650.806Z" transform="translate(-121.799 -458.589)" fill="#ef91a3"/>
    <path id="Path_73" data-name="Path 73" d="M183.1,641.766c-13.92-8-19.174-6.572-21.136-4.691-1.142-1.089-2.191-2.152-3.046-3.044a.839.839,0,0,1-.038-1.171,1.464,1.464,0,0,1,1.394-.407l16.681,3.57a1.336,1.336,0,0,1,.661.343Z" transform="translate(-121.799 -458.147)" opacity="0.1"/>
    <path id="Path_74" data-name="Path 74" d="M161.008,577.532s-22.39-5.816-18.828,6.417,8.142,15.241,8.142,15.241,1.272-9.626,22.9,3.008l-7.633-9.626,8.905-8.824Z" transform="translate(-111.299 -418.421)" fill="#5d526e"/>
    <path id="Path_75" data-name="Path 75" d="M156.308,538.042s-2.035,8.423,5.343,18.65c5.849,8.108-1.093,11.8-4.222,12.989a2.662,2.662,0,0,1-2.507-.331c-2.061-1.607-6.013-5.684-3.7-12.056l1.527-3.209-8.4-4.813s-2.272-6.641-1.263-8.133,9.151-5.5,9.151-5.5Z" transform="translate(-111.941 -389.669)" opacity="0.1"/>
    <path id="Path_76" data-name="Path 76" d="M156.308,536.693s-2.035,8.423,5.343,18.65c5.849,8.108-1.093,11.8-4.222,12.989a2.662,2.662,0,0,1-2.507-.331c-2.061-1.607-6.013-5.684-3.7-12.056l1.527-3.209-8.4-4.813s-2.272-6.641-1.263-8.133,9.151-5.5,9.151-5.5Z" transform="translate(-111.941 -388.703)" fill="#ef91a3"/>
    <path id="Path_77" data-name="Path 77" d="M174.667,488.455s-18.319,8.222-25.952,13.637-6.106,7.219-6.106,7.219,7.379-10.829,13.74-1.4c0,0,17.81-10.228,22.645-5.816S174.667,488.455,174.667,488.455Z" transform="translate(-111.727 -355.488)" fill="#dfecfb"/>
    <path id="Path_78" data-name="Path 78" d="M148.534,621.126,163.8,618.72l-1.781,6.217-11.063-.908Z" transform="translate(-92.464 -442.353)" fill="#5d526e"/>
    <path id="Path_79" data-name="Path 79" d="M223.086,521.544l-.509,4.412-18.319-2.406-5.6-2.808-8.4-2.406a8.925,8.925,0,0,0-1.018-9.425c-3.562-4.612,15.012-2.607,15.012-2.607a15.342,15.342,0,0,0-.28,3.142c.038,3.351,1.242,8.074,7.913,7.286l5.6,2.607Z" transform="translate(-140.554 -367.931)" fill="#ffc1cd"/>
    <path id="Path_80" data-name="Path 80" d="M231.782,535.821s9.414-3.209,13.994,3.409,6.615,6.217,6.615,6.217l-9.159-4.612Z" transform="translate(-167.472 -388.542)" fill="#ffc1cd"/>
    <path id="Path_81" data-name="Path 81" d="M245.57,636.994s-7.124,4.612-3.053,10.428,29.514,4.813,29.514,4.813-16.151-4.783-12.147-20.841C259.885,631.394,248.369,633.986,245.57,636.994Z" transform="translate(-173.385 -457.795)" fill="#5f5470"/>
    <path id="Path_82" data-name="Path 82" d="M338.123,667.252l-2.544,7.621,8.905-1.4s-3.816-6.417-3.308-8.222S338.123,667.252,338.123,667.252Z" transform="translate(-232.173 -481.302)" fill="#5f5470"/>
    <path id="Path_83" data-name="Path 83" d="M351.542,642.128s23.154,1.8,29.514,4.612l4.834,1.2s1.781-.4,5.6,2.206l19.846,3.61,15.266,2.406s13.994,2.005,15.012,1.6,7.887,3.008,1.272,4.612-20.355-.8-20.355-.8-10.177-1-12.467-.4-17.81-1.2-17.81-1.2l-15.266.8s-2.544-3.008-9.16-2.005c-4.721.716-12.94-.407-17.26-1.109a3.922,3.922,0,0,1-3.359-2.7l-1.516-6.423Z" transform="translate(-238.551 -465.474)" fill="#ffc1cd"/>
    <path id="Path_84" data-name="Path 84" d="M351.542,642.128s23.154,1.8,29.514,4.612l4.834,1.2s1.781-.4,5.6,2.206l19.846,3.61,15.266,2.406s13.994,2.005,15.012,1.6,7.887,3.008,1.272,4.612-20.355-.8-20.355-.8-10.177-1-12.467-.4-17.81-1.2-17.81-1.2l-15.266.8s-2.544-3.008-9.16-2.005c-4.721.716-12.94-.407-17.26-1.109a3.922,3.922,0,0,1-3.359-2.7l-1.516-6.423Z" transform="translate(-238.551 -465.474)" opacity="0.05"/>
    <path id="Path_85" data-name="Path 85" d="M203.977,509.445a16.973,16.973,0,0,1-13.269,2.184,9.183,9.183,0,0,0-1.463-2.719c-3.562-4.612,15.012-2.607,15.012-2.607A15.342,15.342,0,0,0,203.977,509.445Z" transform="translate(-140.554 -367.575)" opacity="0.1"/>
    <ellipse id="Ellipse_5" data-name="Ellipse 5" cx="13.994" cy="11.03" rx="13.994" ry="11.03" transform="translate(40.295 122.399)" fill="#ffc1cd"/>
    <path id="Path_86" data-name="Path 86" d="M189.32,538.551s10.686,4.612,11.2,7.62-1.527,6.618-1.527,6.618,4.834,22.862,10.941,24.466l16.284-12.433,13.739-4.813s-8.142-.4-8.905-6.417,1.018-8.022-8.142-10.829a58.507,58.507,0,0,1-14.121-6.116l-2.365.47,12.161,5.044s6.87,3.209-10.941.8l-16.793-4.813Z" transform="translate(-140.883 -390.609)" opacity="0.1"/>
    <path id="Path_87" data-name="Path 87" d="M188.646,537.2s10.686,4.612,11.2,7.62-1.527,6.618-1.527,6.618,4.834,22.862,10.941,24.466l16.284-12.433,13.739-4.813s-8.142-.4-8.905-6.417,1.018-8.022-8.142-10.829A58.508,58.508,0,0,1,208.11,535.3l-2.365.47,12.161,5.044s6.87,3.209-10.941.8L190.173,536.8Z" transform="translate(-140.463 -389.642)" fill="#ff808c"/>
    <path id="Path_88" data-name="Path 88" d="M185.09,546.043s-10.432-3.008-7.887,6.618,15.775,26.271,15.775,26.271l31.041-8.423s9.669-5.816,7.124-6.417-16.029,3.209-16.029,3.209l-18.319,2.206-4.325-9.626s4.071-2.206,2.8-5.013l-.038-.084A17.481,17.481,0,0,0,185.5,546.2Z" transform="translate(-133.091 -396.778)" opacity="0.1"/>
    <path id="Path_89" data-name="Path 89" d="M183.742,544.7s-10.432-3.008-7.887,6.618,15.775,26.271,15.775,26.271l31.041-8.423s9.669-5.816,7.124-6.417-16.029,3.209-16.029,3.209l-18.319,2.206-4.325-9.626s4.071-2.206,2.8-5.013l-.038-.084a17.481,17.481,0,0,0-9.731-8.579Z" transform="translate(-132.251 -395.813)" fill="#ffc1cd"/>
    <path id="Path_90" data-name="Path 90" d="M128.426,434.518a13.5,13.5,0,0,0-3.722-.307,13.107,13.107,0,0,0-3.387.852,35.4,35.4,0,0,0-4.893,2.229,14.894,14.894,0,0,1-3.257,1.533c-1.8.491-3.88.263-5.537,1-2.323,1.035-2.842,3.515-2.5,5.6s1.281,4.164.864,6.241c-.624,3.108-4.044,5.316-7.186,7.258-.989.611-2.051,1.329-2.2,2.313a3.555,3.555,0,0,0,.431,1.812,12.336,12.336,0,0,1-.2,9.921,15.474,15.474,0,0,1-8.217,7.46c-1.444.594-3.2,1.2-3.535,2.458-.429,1.595,1.75,2.83,3.69,3.4a31.378,31.378,0,0,0,4.886,1.006,9.313,9.313,0,0,0,4.371-.252A7.348,7.348,0,0,0,101.363,484c3.2-4.66,7.135-6.944,9.208-11.986.447-1.087,1.16-2.381,2.6-2.491a4.886,4.886,0,0,1,2.486.761c3.7,1.839,7.591-.222,11.038-2.347a18.75,18.75,0,0,1,2.367-1.493c1.886-.816,4.632-.582,5.763-2.025a3.489,3.489,0,0,0,.541-1.218c.463-1.568.926-3.214.391-4.768-.5-1.438-1.787-2.616-2.549-3.98s-.805-3.227.75-4.074c.466-.254,1.027-.385,1.486-.647,1.337-.764,1.367-2.29,1.359-3.592a1.561,1.561,0,0,1,.2-.94,2.724,2.724,0,0,1,.941-.681,7.957,7.957,0,0,0,3.326-3.238c.674-1.433-1.052-2.082-2.432-2.887A33.482,33.482,0,0,0,128.426,434.518Z" transform="translate(-75.963 -317.527)" opacity="0.1"/>
    <path id="Path_91" data-name="Path 91" d="M127.752,433.844a13.5,13.5,0,0,0-3.722-.307,13.1,13.1,0,0,0-3.387.852,35.4,35.4,0,0,0-4.894,2.228,14.892,14.892,0,0,1-3.257,1.533c-1.8.491-3.88.263-5.537,1-2.323,1.035-2.842,3.516-2.5,5.6s1.281,4.164.864,6.241c-.624,3.108-4.044,5.316-7.186,7.258-.989.611-2.051,1.329-2.2,2.313a3.555,3.555,0,0,0,.431,1.812,12.336,12.336,0,0,1-.2,9.921,15.474,15.474,0,0,1-8.217,7.46c-1.444.594-3.2,1.2-3.535,2.458-.429,1.595,1.75,2.83,3.69,3.4a31.389,31.389,0,0,0,4.886,1.006,9.313,9.313,0,0,0,4.371-.253,7.348,7.348,0,0,0,3.329-3.037c3.2-4.66,7.135-6.944,9.208-11.986.447-1.087,1.16-2.381,2.6-2.491a4.885,4.885,0,0,1,2.486.761c3.7,1.839,7.591-.222,11.038-2.347a18.753,18.753,0,0,1,2.367-1.493c1.886-.815,4.632-.582,5.763-2.025a3.488,3.488,0,0,0,.541-1.218c.463-1.568.926-3.214.391-4.768-.5-1.438-1.787-2.616-2.549-3.98s-.805-3.227.75-4.074c.466-.254,1.027-.385,1.486-.647,1.337-.764,1.367-2.29,1.359-3.592a1.561,1.561,0,0,1,.2-.94,2.725,2.725,0,0,1,.941-.681,7.957,7.957,0,0,0,3.326-3.238c.674-1.433-1.052-2.082-2.432-2.887A33.482,33.482,0,0,0,127.752,433.844Z" transform="translate(-75.544 -317.043)" fill="#b46d86"/>
    <path id="Path_92" data-name="Path 92" d="M369.292,596.532c-6.908,1.149-27.064.662-30.023-1.2-4.529-2.856-3.414-5.393-3.114-5.916h-.066s2.544-4.813,0-8.423c0,0-.254-4.412-5.6-7.821s-11.2-13.035-11.2-13.035l-3.053,5.013s-4.59,11.008-9.35,15.895A7.142,7.142,0,0,0,305,584.349c-.316,1.326-1.4,3-4.786,3.459l-.176.024c-4.834.637-9.7-.99-12.475-4.173-2.277-2.584-4.857-6.171-5.44-9.665a7.339,7.339,0,0,1,2.5-6.593l.028-.026c5.48-5.1,24.482-22.659,27.525-23.686,0,0,13.739-10.428,19.083,3.61s7.124,18.249,7.124,18.249,6.389,8.994,8.142,12.032c1.812,3.14,9.348,10.974,10.114,11.766.7.377,7.435,3.977,9.6,3.977C367.2,593.324,374.268,595.7,369.292,596.532Z" transform="translate(-198.844 -393.617)" fill="#ffc1cd"/>
    <g id="Group_13" data-name="Group 13" transform="translate(83.213 164.452)" opacity="0.05">
      <path id="Path_93" data-name="Path 93" d="M337.125,626.228a6.922,6.922,0,0,0-1.041-5.032s-.254-4.412-5.6-7.821-11.195-13.035-11.195-13.035l-3.053,5.013s-4.59,11.008-9.35,15.895a7.143,7.143,0,0,0-1.893,3.307c-.315,1.326-1.4,3-4.786,3.459l-.176.024c-4.834.637-9.7-.99-12.475-4.173-2.252-2.556-4.8-6.092-5.417-9.549a6.581,6.581,0,0,0-.023,2.29c.583,3.494,3.163,7.081,5.44,9.665,2.777,3.183,7.641,4.81,12.475,4.173l.176-.024c3.381-.463,4.47-2.134,4.786-3.459a7.142,7.142,0,0,1,1.893-3.307c4.76-4.887,9.35-15.895,9.35-15.895l3.053-5.013s5.852,9.626,11.2,13.035,5.6,7.821,5.6,7.821A6.138,6.138,0,0,1,337.125,626.228Z" transform="translate(-282.03 -600.34)"/>
    </g>
    <path id="Path_94" data-name="Path 94" d="M252.34,592.9s10.941-.2,10.177-3.008" transform="translate(-180.283 -427.556)" opacity="0.05"/>
    <path id="Path_95" data-name="Path 95" d="M727.661,617.965s16.987-9.224,33.6-5.951,4.152,14.579,4.152,14.579Z" transform="translate(-476.648 -443.238)" fill="#eed1d7"/>
    <path id="Path_96" data-name="Path 96" d="M709.661,607.944s16.61-5.653,27.935.3,33.975,8.926,33.975,8.926" transform="translate(-465.461 -438.98)" fill="#ccb2bb"/>
  </g>
</svg>
