<svg xmlns="http://www.w3.org/2000/svg" width="674" height="202.848" viewBox="0 0 674 202.848">
  <g id="wave" transform="translate(0 -73.209)">
    <g id="Group_6" data-name="Group 6" transform="translate(0 73.209)">
      <g id="Group_5" data-name="Group 5">
        <path id="Path_36" data-name="Path 36" d="M651.937,192.273c-23.819,0-46.426-6.68-62.028-18.327-4.189-3.128-10.29-4.928-16.708-4.928s-12.516,1.8-16.708,4.928c-15.6,11.646-38.2,18.326-62.026,18.326s-46.426-6.68-62.028-18.327c-4.189-3.128-10.29-4.928-16.708-4.928s-12.516,1.8-16.708,4.928c-15.6,11.646-38.2,18.326-62.026,18.326s-46.426-6.68-62.026-18.326c-4.192-3.129-10.29-4.928-16.708-4.928s-12.516,1.8-16.708,4.928c-15.6,11.647-38.207,18.327-62.028,18.327s-46.426-6.68-62.026-18.326c-4.192-3.129-10.29-4.928-16.708-4.928s-12.516,1.8-16.708,4.928c-15.6,11.649-38.207,18.327-62.026,18.327C9.876,192.273,0,198.631,0,206.475s9.876,14.2,22.061,14.2c25.662,0,50.392-5.042,71.157-14.2,2.586-1.141,5.123-2.335,7.579-3.6,2.456,1.267,4.993,2.462,7.579,3.6,20.762,9.16,45.495,14.2,71.154,14.2s50.392-5.042,71.157-14.2c2.586-1.141,5.123-2.335,7.579-3.6,2.456,1.267,4.993,2.462,7.579,3.6,20.762,9.16,45.495,14.2,71.154,14.2s50.392-5.042,71.154-14.2c2.586-1.141,5.121-2.335,7.579-3.6,2.456,1.267,4.993,2.462,7.579,3.6,20.762,9.16,45.495,14.2,71.157,14.2s50.392-5.042,71.154-14.2c2.586-1.141,5.121-2.335,7.579-3.6,2.456,1.267,4.993,2.462,7.579,3.6,20.762,9.16,45.495,14.2,71.157,14.2,12.185,0,22.061-6.358,22.061-14.2S664.122,192.273,651.937,192.273Z" transform="translate(0 -17.83)" fill="rgba(221,240,241,0.36)"/>
        <path id="Path_37" data-name="Path 37" d="M651.937,144.37c-23.819,0-46.426-6.68-62.028-18.327-4.189-3.128-10.29-4.928-16.708-4.928s-12.516,1.8-16.708,4.928c-15.6,11.646-38.2,18.326-62.026,18.326s-46.426-6.68-62.028-18.327c-4.189-3.128-10.29-4.928-16.708-4.928s-12.516,1.8-16.708,4.928c-15.6,11.646-38.2,18.326-62.026,18.326s-46.426-6.68-62.026-18.326c-4.192-3.129-10.29-4.928-16.708-4.928s-12.516,1.8-16.708,4.928c-15.6,11.647-38.207,18.327-62.028,18.327s-46.426-6.68-62.026-18.326c-4.192-3.129-10.29-4.928-16.708-4.928s-12.516,1.8-16.708,4.928C68.487,137.69,45.88,144.37,22.061,144.37,9.876,144.37,0,150.728,0,158.572s9.876,14.2,22.061,14.2c25.662,0,50.392-5.042,71.157-14.2,2.586-1.141,5.121-2.335,7.579-3.6,2.456,1.267,4.993,2.462,7.579,3.6,20.762,9.16,45.495,14.2,71.154,14.2s50.392-5.042,71.157-14.2c2.586-1.141,5.121-2.335,7.579-3.6,2.456,1.267,4.993,2.462,7.579,3.6,20.762,9.16,45.495,14.2,71.154,14.2s50.392-5.042,71.154-14.2c2.586-1.141,5.121-2.335,7.579-3.6,2.456,1.267,4.993,2.462,7.579,3.6,20.764,9.16,45.495,14.2,71.157,14.2s50.392-5.042,71.154-14.2c2.586-1.141,5.121-2.335,7.579-3.6,2.456,1.267,4.993,2.462,7.579,3.6,20.764,9.16,45.495,14.2,71.157,14.2,12.185,0,22.061-6.358,22.061-14.2S664.122,144.37,651.937,144.37Z" transform="translate(0 -45.519)" fill="rgba(221,240,241,0.36)"/>
        <path id="Path_38" data-name="Path 38" d="M22.061,124.871c25.662,0,50.392-5.042,71.157-14.2,2.586-1.141,5.121-2.335,7.579-3.6,2.456,1.267,4.993,2.462,7.579,3.6,20.762,9.16,45.495,14.2,71.154,14.2s50.392-5.042,71.157-14.2c2.586-1.141,5.121-2.335,7.579-3.6,2.456,1.267,4.993,2.462,7.579,3.6,20.762,9.16,45.495,14.2,71.154,14.2s50.392-5.042,71.154-14.2c2.586-1.141,5.121-2.335,7.579-3.6,2.456,1.267,4.993,2.462,7.579,3.6,20.764,9.16,45.495,14.2,71.157,14.2s50.392-5.042,71.154-14.2c2.586-1.141,5.121-2.335,7.579-3.6,2.456,1.267,4.993,2.462,7.579,3.6,20.764,9.16,45.495,14.2,71.157,14.2,12.185,0,22.061-6.358,22.061-14.2s-9.876-14.2-22.061-14.2c-23.819,0-46.426-6.68-62.028-18.327-4.189-3.128-10.29-4.928-16.708-4.928s-12.516,1.8-16.708,4.928c-15.6,11.646-38.2,18.326-62.026,18.326s-46.426-6.68-62.028-18.327c-4.189-3.128-10.29-4.928-16.708-4.928s-12.516,1.8-16.708,4.928c-15.6,11.646-38.2,18.326-62.026,18.326s-46.426-6.68-62.026-18.326c-4.192-3.129-10.29-4.928-16.708-4.928s-12.516,1.8-16.708,4.928c-15.6,11.647-38.207,18.327-62.028,18.327S133.1,89.786,117.5,78.14c-4.192-3.129-10.29-4.928-16.708-4.928s-12.516,1.8-16.708,4.928c-15.6,11.647-38.21,18.326-62.028,18.326C9.876,96.466,0,102.824,0,110.668S9.876,124.871,22.061,124.871Z" transform="translate(0 -73.209)" fill="rgba(221,240,241,0.36)"/>
      </g>
      <g id="Group_7" data-name="Group 7">
        <path id="Path_36-2" data-name="Path 36" d="M651.937,192.273c-23.819,0-46.426-6.68-62.028-18.327-4.189-3.128-10.29-4.928-16.708-4.928s-12.516,1.8-16.708,4.928c-15.6,11.646-38.2,18.326-62.026,18.326s-46.426-6.68-62.028-18.327c-4.189-3.128-10.29-4.928-16.708-4.928s-12.516,1.8-16.708,4.928c-15.6,11.646-38.2,18.326-62.026,18.326s-46.426-6.68-62.026-18.326c-4.192-3.129-10.29-4.928-16.708-4.928s-12.516,1.8-16.708,4.928c-15.6,11.647-38.207,18.327-62.028,18.327s-46.426-6.68-62.026-18.326c-4.192-3.129-10.29-4.928-16.708-4.928s-12.516,1.8-16.708,4.928c-15.6,11.649-38.207,18.327-62.026,18.327C9.876,192.273,0,198.631,0,206.475s9.876,14.2,22.061,14.2c25.662,0,50.392-5.042,71.157-14.2,2.586-1.141,5.123-2.335,7.579-3.6,2.456,1.267,4.993,2.462,7.579,3.6,20.762,9.16,45.495,14.2,71.154,14.2s50.392-5.042,71.157-14.2c2.586-1.141,5.123-2.335,7.579-3.6,2.456,1.267,4.993,2.462,7.579,3.6,20.762,9.16,45.495,14.2,71.154,14.2s50.392-5.042,71.154-14.2c2.586-1.141,5.121-2.335,7.579-3.6,2.456,1.267,4.993,2.462,7.579,3.6,20.762,9.16,45.495,14.2,71.157,14.2s50.392-5.042,71.154-14.2c2.586-1.141,5.121-2.335,7.579-3.6,2.456,1.267,4.993,2.462,7.579,3.6,20.762,9.16,45.495,14.2,71.157,14.2,12.185,0,22.061-6.358,22.061-14.2S664.122,192.273,651.937,192.273Z" transform="translate(0 -17.83)" fill="rgba(221,240,241,0.36)"/>
        <path id="Path_37-2" data-name="Path 37" d="M651.937,144.37c-23.819,0-46.426-6.68-62.028-18.327-4.189-3.128-10.29-4.928-16.708-4.928s-12.516,1.8-16.708,4.928c-15.6,11.646-38.2,18.326-62.026,18.326s-46.426-6.68-62.028-18.327c-4.189-3.128-10.29-4.928-16.708-4.928s-12.516,1.8-16.708,4.928c-15.6,11.646-38.2,18.326-62.026,18.326s-46.426-6.68-62.026-18.326c-4.192-3.129-10.29-4.928-16.708-4.928s-12.516,1.8-16.708,4.928c-15.6,11.647-38.207,18.327-62.028,18.327s-46.426-6.68-62.026-18.326c-4.192-3.129-10.29-4.928-16.708-4.928s-12.516,1.8-16.708,4.928C68.487,137.69,45.88,144.37,22.061,144.37,9.876,144.37,0,150.728,0,158.572s9.876,14.2,22.061,14.2c25.662,0,50.392-5.042,71.157-14.2,2.586-1.141,5.121-2.335,7.579-3.6,2.456,1.267,4.993,2.462,7.579,3.6,20.762,9.16,45.495,14.2,71.154,14.2s50.392-5.042,71.157-14.2c2.586-1.141,5.121-2.335,7.579-3.6,2.456,1.267,4.993,2.462,7.579,3.6,20.762,9.16,45.495,14.2,71.154,14.2s50.392-5.042,71.154-14.2c2.586-1.141,5.121-2.335,7.579-3.6,2.456,1.267,4.993,2.462,7.579,3.6,20.764,9.16,45.495,14.2,71.157,14.2s50.392-5.042,71.154-14.2c2.586-1.141,5.121-2.335,7.579-3.6,2.456,1.267,4.993,2.462,7.579,3.6,20.764,9.16,45.495,14.2,71.157,14.2,12.185,0,22.061-6.358,22.061-14.2S664.122,144.37,651.937,144.37Z" transform="translate(0 -45.519)" fill="rgba(221,240,241,0.36)"/>
        <path id="Path_38-2" data-name="Path 38" d="M22.061,124.871c25.662,0,50.392-5.042,71.157-14.2,2.586-1.141,5.121-2.335,7.579-3.6,2.456,1.267,4.993,2.462,7.579,3.6,20.762,9.16,45.495,14.2,71.154,14.2s50.392-5.042,71.157-14.2c2.586-1.141,5.121-2.335,7.579-3.6,2.456,1.267,4.993,2.462,7.579,3.6,20.762,9.16,45.495,14.2,71.154,14.2s50.392-5.042,71.154-14.2c2.586-1.141,5.121-2.335,7.579-3.6,2.456,1.267,4.993,2.462,7.579,3.6,20.764,9.16,45.495,14.2,71.157,14.2s50.392-5.042,71.154-14.2c2.586-1.141,5.121-2.335,7.579-3.6,2.456,1.267,4.993,2.462,7.579,3.6,20.764,9.16,45.495,14.2,71.157,14.2,12.185,0,22.061-6.358,22.061-14.2s-9.876-14.2-22.061-14.2c-23.819,0-46.426-6.68-62.028-18.327-4.189-3.128-10.29-4.928-16.708-4.928s-12.516,1.8-16.708,4.928c-15.6,11.646-38.2,18.326-62.026,18.326s-46.426-6.68-62.028-18.327c-4.189-3.128-10.29-4.928-16.708-4.928s-12.516,1.8-16.708,4.928c-15.6,11.646-38.2,18.326-62.026,18.326s-46.426-6.68-62.026-18.326c-4.192-3.129-10.29-4.928-16.708-4.928s-12.516,1.8-16.708,4.928c-15.6,11.647-38.207,18.327-62.028,18.327S133.1,89.786,117.5,78.14c-4.192-3.129-10.29-4.928-16.708-4.928s-12.516,1.8-16.708,4.928c-15.6,11.647-38.21,18.326-62.028,18.326C9.876,96.466,0,102.824,0,110.668S9.876,124.871,22.061,124.871Z" transform="translate(0 -73.209)" fill="rgba(221,240,241,0.36)"/>
      </g>
    </g>
  </g>
</svg>
